<?xml version="1.0" encoding="utf-8"?>
<!-- Generator: Adobe Illustrator 25.0.1, SVG Export Plug-In . SVG Version: 6.00 Build 0)  -->
<svg version="1.1" xmlns="http://www.w3.org/2000/svg" xmlns:xlink="http://www.w3.org/1999/xlink" x="0px" y="0px"
	 viewBox="0 0 500 500" style="enable-background:new 0 0 500 500;" xml:space="preserve">
<style type="text/css">
	.st0{opacity:0.2;fill:#010002;}
	.st1{fill:none;stroke:#000000;stroke-width:5.1589;stroke-miterlimit:10;}
	.st2{fill:none;stroke:#000000;stroke-width:5.8895;stroke-miterlimit:10;}
	.st3{fill:#92F4E9;}
	.st4{fill:#FFFFFF;}
	.st5{fill:#5DD1C6;}
	.st6{fill:#00373E;}
</style>
<g id="objects">
	<g>
		<ellipse class="st0" cx="261.7" cy="421.3" rx="123.3" ry="17.2"/>
		<polyline class="st1" points="128.4,303.5 244.9,263.7 277.5,266.1 301.3,421.3 		"/>
		<line class="st2" x1="286.9" y1="171.9" x2="272.5" y2="212.8"/>
		<g>
			
				<ellipse transform="matrix(0.3332 -0.9428 0.9428 0.3332 84.6971 370.2183)" class="st3" cx="304.1" cy="125.2" rx="67.4" ry="78.7"/>
			<path class="st3" d="M217.7,92.5c-6.2,17.4-0.1,35.5,13.6,40.3c13.7,4.8,29.7-5.4,35.9-22.8c6.2-17.4,0.1-35.5-13.6-40.3
				C239.9,64.9,223.8,75.1,217.7,92.5z"/>
			<g>
				<path class="st4" d="M262.7,104.1c4-16.1-2.1-31.9-14.7-36.4c-12.6-4.5-27.3,4-34.3,19L262.7,104.1z"/>
				<path class="st4" d="M260.8,109.5l-49.2-17.4c-5.3,17,0.8,34.1,14,38.8c13.3,4.7,28.8-4.8,35.3-21.4
					C260.9,109.5,260.8,109.5,260.8,109.5z"/>
			</g>
			
				<ellipse transform="matrix(0.3332 -0.9428 0.9428 0.3332 107.4439 442.0356)" class="st3" cx="366.3" cy="145.1" rx="33.5" ry="26.2"/>
			<g>
				<path class="st4" d="M348.7,134.5c7-15.1,21.7-23.5,34.3-19c12.6,4.5,18.7,20.2,14.7,36.4L348.7,134.5z"/>
				<path class="st4" d="M346.8,139.8l49.2,17.4c-6.5,16.5-22,26.1-35.3,21.4C347.5,173.9,341.4,156.8,346.8,139.8
					C346.7,139.8,346.7,139.8,346.8,139.8z"/>
			</g>
			<path class="st4" d="M319.4,82c13.3,4.7,27.3,2.3,38.1-5.1c-8.4-7.4-18.6-13.4-30.1-17.5c-11.5-4.1-23.2-5.7-34.4-5.3
				C296.7,66.6,306.1,77.3,319.4,82z"/>
			<path class="st4" d="M288.8,168.5c-13.3-4.7-27.3-2.3-38.1,5.1c8.4,7.4,18.6,13.4,30.1,17.5c11.5,4.1,23.2,5.7,34.4,5.3
				C311.5,183.9,302.1,173.2,288.8,168.5z"/>
			<path class="st4" d="M381,152.4c8.7-24.7,0.5-51.8-19-71.4c-12.4,9.1-29,12.1-44.6,6.6c-15.6-5.5-26.6-18.2-30.5-33.1
				c-27.5,3-51,18.9-59.7,43.6c-5,14.1-4.4,28.9,0.6,42.7c0,0,0.1,0,0.1,0c3.8,10.4,10,20.2,18.4,28.6c12.4-9.1,29-12.1,44.6-6.6
				c15.6,5.5,26.6,18.2,30.5,33.1c13.7-1.5,26.3-6.2,36.6-13.6c0,0,0.1,0,0.1,0C368.5,175,376.6,164.8,381,152.4z"/>
			<path class="st5" d="M347.8,158.7c-1.8,5-7.5,7.5-12.9,5.6l-79.3-28c-5.4-1.9-8.3-7.5-6.5-12.5L260,92.9c1.8-5,7.5-7.5,12.9-5.6
				l79.3,28c5.4,1.9,8.3,7.5,6.5,12.5L347.8,158.7z"/>
			<g>
				<g>
					<path class="st3" d="M263.8,130.5c-1.1,3.2-4.6,4.8-7.7,3.7l0,0c-3.2-1.1-4.8-4.6-3.7-7.7l11-31.1c1.1-3.2,4.6-4.8,7.7-3.7l0,0
						c3.2,1.1,4.8,4.6,3.7,7.7L263.8,130.5z"/>
				</g>
			</g>
			<g>
				<g>
					<g>
						<g>
							<path class="st4" d="M286.5,117c-3.2,10.8,1.7,21.1,12.1,25.4c10.4,4.3,21.4-2.6,25.4-12.1
								C325.4,126.8,287.5,113.4,286.5,117L286.5,117z"/>
						</g>
					</g>
				</g>
				<g>
					<g>
						<g>
							<path class="st6" d="M279.4,113.8c1.2-4.4-1-8.7-5.2-10.4c-4.4-1.7-9.1,0.9-10.7,5.1c-0.6,1.6,1.8,2.8,2.4,1.2
								c2.8-7,12.8-3.6,10.8,3.7C276.3,114.9,278.9,115.4,279.4,113.8L279.4,113.8z"/>
						</g>
					</g>
				</g>
				<g>
					<g>
						<g>
							<path class="st6" d="M347,138.9c1.2-4.4-1.1-8.7-5.3-10.3c-4.4-1.7-9.1,1.1-10.6,5.2c-0.6,1.6,1.8,2.8,2.5,1.1
								c2.7-7.1,12.8-3.8,10.9,3.5C343.9,140.2,346.6,140.6,347,138.9L347,138.9z"/>
						</g>
					</g>
				</g>
			</g>
		</g>
		<g>
			<g>
				<g>
					<path d="M160.1,106.4c5.4,6.8,10.8,13.6,16.3,20.4c0.8,1,1.5,1.9,2.3,2.9c0.7,0.9,2.3,0.8,3.1,0c0.9-0.9,0.7-2.2,0-3.1
						c-5.4-6.8-10.8-13.6-16.3-20.4c-0.8-1-1.5-1.9-2.3-2.9c-0.7-0.9-2.3-0.8-3.1,0C159.2,104.2,159.3,105.5,160.1,106.4
						L160.1,106.4z"/>
				</g>
			</g>
			<g>
				<g>
					<path d="M171.7,95.6c4.8,7.2,9.5,14.5,14.3,21.7c0.7,1,1.4,2.1,2.1,3.1c1.6,2.4,5.4,0.2,3.8-2.2c-4.8-7.2-9.5-14.5-14.3-21.7
						c-0.7-1-1.4-2.1-2.1-3.1C174,91,170.1,93.2,171.7,95.6L171.7,95.6z"/>
				</g>
			</g>
			<g>
				<g>
					<path d="M189.1,89c3.3,8,6.6,16.1,9.8,24.1c0.5,1.1,0.9,2.3,1.4,3.4c0.5,1.1,1.5,1.9,2.7,1.5c1-0.3,2-1.6,1.5-2.7
						c-3.3-8-6.6-16.1-9.8-24.1c-0.5-1.1-0.9-2.3-1.4-3.4c-0.5-1.1-1.5-1.9-2.7-1.5C189.5,86.6,188.6,87.9,189.1,89L189.1,89z"/>
				</g>
			</g>
			<g>
				<g>
					<path d="M221.6,103.4c-6.9,5.2-13.8,10.5-20.7,15.7c-1,0.8-2,1.5-3,2.3c-0.9,0.7-1.4,1.9-0.8,3c0.5,0.9,2.1,1.5,3,0.8
						c6.9-5.2,13.8-10.5,20.7-15.7c1-0.8,2-1.5,3-2.3c0.9-0.7,1.4-1.9,0.8-3C224.1,103.2,222.6,102.6,221.6,103.4L221.6,103.4z"/>
				</g>
			</g>
			<line class="st2" x1="232.2" y1="196.2" x2="211.8" y2="158"/>
			<g>
				<path class="st3" d="M208.2,177.6c0,0,18.7,2.7,18.6-13.1c-0.1-15.9-11.9-47.1-17.6-60.1c-5.6-13-47.3,1.5-40.7,21.3
					C175.2,145.4,208.2,177.6,208.2,177.6z"/>
				<g>
					<path class="st4" d="M222.3,179.1l-40.7-79.2c11.5-5.5,25.4-6.2,28.6,1.2c6.1,14.2,19,48.2,19.1,65.5
						C229.4,173.5,226.2,177.2,222.3,179.1z"/>
					<path class="st4" d="M176.5,102.8l40,78c-4,0.6-7.4,0.1-7.4,0.1s-35.9-35-43.2-56.6C163,115.7,168.5,108.1,176.5,102.8z"/>
				</g>
			</g>
			<g>
				<path class="st0" d="M222.2,179.1l-1.7-3.4c-1.9,1-3.9,1.5-5.8,1.8l1.7,3.3c-4,0.6-7.4,0.1-7.4,0.1s-2.1-2-5.3-5.4
					c1.1,0,2.4-0.1,3.8-0.3l5.8-1.7c3.9-1.9,7.1-5.6,7.1-12.5c-0.1-12.3-17.2-60.5-19-65.2c4.2,0.5,7.4,2.1,8.8,5.2
					c0.8,1.8,1.6,3.8,2.6,6.1c2.3-1.7,4.6-3.4,6.8-5.2c4.5-3.4,10.8,2.9,6.2,6.4c-3.2,2.4-6.5,4.9-9.7,7.3
					c6.1,16.3,13.2,38.1,13.2,50.8C229.3,173.5,226.1,177.2,222.2,179.1z"/>
			</g>
		</g>
		<g>
			<g>
				<g>
					<path d="M427.6,208.1c-8.6,1-17.2,2.1-25.9,3.1c-1.2,0.1-2.5,0.3-3.7,0.4c-1.2,0.1-2.2,0.9-2.2,2.2c0,1.1,1,2.4,2.2,2.2
						c8.6-1,17.2-2.1,25.9-3.1c1.2-0.1,2.5-0.3,3.7-0.4c1.2-0.1,2.2-0.9,2.2-2.2C429.8,209.2,428.8,208,427.6,208.1L427.6,208.1z"/>
				</g>
			</g>
			<g>
				<g>
					<path d="M425.8,192.4c-8.5,1.8-17,3.6-25.5,5.4c-1.2,0.3-2.4,0.5-3.6,0.8c-2.8,0.6-1.6,4.9,1.2,4.3c8.5-1.8,17-3.6,25.5-5.4
						c1.2-0.3,2.4-0.5,3.6-0.8C429.8,196,428.6,191.8,425.8,192.4L425.8,192.4z"/>
				</g>
			</g>
			<g>
				<g>
					<path d="M417,176c-8,3.4-16,6.8-23.9,10.3c-1.1,0.5-2.3,1-3.4,1.5c-1.1,0.5-1.3,2.1-0.8,3c0.7,1.1,1.9,1.3,3,0.8
						c8-3.4,16-6.8,23.9-10.3c1.1-0.5,2.3-1,3.4-1.5c1.1-0.5,1.3-2.1,0.8-3C419.3,175.6,418.1,175.5,417,176L417,176z"/>
				</g>
			</g>
			<g>
				<g>
					<path d="M381.7,168.3c1.3,8.6,2.5,17.2,3.8,25.8c0.2,1.2,0.4,2.4,0.5,3.7c0.2,1.2,1.7,1.8,2.7,1.5c1.3-0.3,1.7-1.5,1.5-2.7
						c-1.3-8.6-2.5-17.2-3.8-25.8c-0.2-1.2-0.4-2.4-0.5-3.7c-0.2-1.2-1.7-1.8-2.7-1.5C382,165.9,381.5,167.1,381.7,168.3
						L381.7,168.3z"/>
				</g>
			</g>
			<line class="st2" x1="313.2" y1="225.8" x2="354.6" y2="212.9"/>
			<g>
				<path class="st3" d="M343.4,229.4c0,0-15.2-11.2-4-22.4c11.2-11.2,41.6-25.1,54.7-30.5c13.1-5.3,32.7,34.3,14,43.7
					C389.4,229.7,343.4,229.4,343.4,229.4z"/>
				<g>
					<path class="st4" d="M332.3,220.6l84.5-27.8c-4.4-12-13.7-22.3-21.2-19.2c-14.3,5.8-47.4,21-59.6,33.2
						C331.1,211.6,330.8,216.5,332.3,220.6z"/>
					<path class="st4" d="M418.5,198.5l-83.3,27.4c2.4,3.2,5.2,5.2,5.2,5.2s50.2,0.3,70.5-10C419,217.1,420.5,207.8,418.5,198.5z"/>
				</g>
			</g>
			<g>
				<path class="st0" d="M411.8,187.2l1.7,5.7c0.1,0.3,0.1,0.6,0.2,0.9l3.2-1c-2.4-6.6-6.3-12.7-10.6-16.3
					C408.4,179.6,410.4,183.3,411.8,187.2z"/>
				<path class="st0" d="M331.6,215.6c-0.1,1.4,0.1,2.8,0.5,4.1l1.7-0.6C332.9,218.1,332.2,216.9,331.6,215.6z"/>
				<path class="st0" d="M418.5,198.5l-3.4,1.1c-0.3-1.4-0.7-2.7-1.1-4.1c1.2,8.4-0.7,16.4-8,20.1c-18.8,9.5-63.2,10-69.7,10l-1,0.3
					c2.4,3.2,5.2,5.2,5.2,5.2s50.2,0.3,70.5-10C419,217.1,420.5,207.8,418.5,198.5z"/>
			</g>
		</g>
		<path class="st0" d="M390.3,155.2c0.2-0.5,0.4-1,0.6-1.5c0.5-1.3,0.8-2.6,1.2-4l5.6,2c4-16.1-2.1-31.9-14.7-36.4
			c-0.3-0.1-0.6-0.2-0.9-0.2c-3.4-12.5-10.3-24.3-20.2-34.2c-0.7,0.5-1.4,1-2.1,1.5c-1.5-1.5-3-2.9-4.5-4.2c0.8-0.5,1.5-0.9,2.2-1.4
			c-8.4-7.4-18.6-13.4-30.1-17.5c-2.9-1-5.8-1.9-8.8-2.6c8.1,3.8,15.3,8.5,21.6,14c-0.7,0.5,3.8,4.7,4.5,4.2
			c9.9,9.9,16.8,21.7,20.2,34.2c0.3,0.1,0.6,0.1,0.9,0.2c12.6,4.5,18.7,20.2,14.7,36.4l-1.8,5.4c-6.3,15.8-20.8,25.2-33.6,21.8
			c-1.4,1.2-2.8,2.3-4.3,3.4c0,0-0.1,0-0.1,0c-10.4,7.4-23,12.1-36.6,13.6c-0.2-0.8-6.3-0.4-6.1,0.4c-8.4,0.3-17-0.5-25.6-2.7
			c2.7,1.3,5.6,2.4,8.5,3.5c11.5,4.1,23.2,5.7,34.4,5.3c-0.3-0.8-0.5-1.7-0.8-2.5c2.1-0.1,4.1-0.2,6.2-0.4c0.3,0.8,0.5,1.7,0.7,2.5
			c13.7-1.5,26.3-6.2,36.6-13.6c0,0,0.1,0,0.1,0c1.5-1.1,2.9-2.2,4.3-3.4c12.9,3.4,27.4-6,33.6-21.8L390.3,155.2z"/>
		<g>
			<g>
				<path class="st3" d="M187.6,268c0,0,23.2,21.7,11.2,36.1c-12.1,14.4-60.6,38.3-75.9,44.4c-15.3,6-48.3-55.4-26.8-66.5
					C117.6,270.9,187.6,268,187.6,268z"/>
				<path class="st4" d="M201.3,304.4c4.9-5.9,4.2-12.9,1.5-19.3c-29,6.3-58.1,15.7-86.6,28.2l-2.6-5.3
					c28.5-12.4,57.5-21.9,86.4-28.2c-4.5-7.5-10.5-13-10.5-13s-73.1,3-95.6,14.6c-22.5,11.6,11.9,75.8,28,69.5
					C138,344.5,188.7,319.4,201.3,304.4z"/>
			</g>
			<path class="st0" d="M201.2,304.3c3.9-4.6,4.2-10,2.9-15.2c-0.5,0.8-1,1.6-1.7,2.3c-13.5,16.1-67.9,43-85.1,49.8
				c-6.2,2.5-15.1-5-22.6-16.2c7.8,15.7,19.6,28.6,27.2,25.6C137.9,344.4,188.6,319.3,201.2,304.3z"/>
		</g>
		<g>
			<g>
				<path class="st3" d="M306.5,316.6c0,0-29.8-11.1-37.3,6.1c-7.5,17.2-7.3,71.3-5.9,87.7c1.4,16.4,71.1,18.5,71.5-5.7
					C335.1,380.6,306.5,316.6,306.5,316.6z"/>
				<path class="st4" d="M267.8,320.6c3.1-7,9.7-9.5,16.6-10c7.3,28.7,11.8,59,13.4,90.1l5.9-0.1c-1.6-31-6-61.2-13.2-89.9
					c8.7,0.7,16.3,3.6,16.3,3.6s29.9,66.8,29.6,92.1c-0.4,25.3-73.2,23.1-74.7,5.9S260,338.6,267.8,320.6z"/>
			</g>
			<path class="st0" d="M306.7,314.3c0,0-4.8-1.8-11-2.9c6.2,14.2,30,70.5,29.7,93.7c-0.2,12.9-18.3,19-37,19.8
				c21.3,1.9,47.7-3.3,47.9-18.5C336.6,381.1,306.7,314.3,306.7,314.3z"/>
		</g>
		
			<ellipse transform="matrix(0.3155 -0.9489 0.9489 0.3155 -48.6958 413.9811)" class="st3" cx="262.6" cy="240.7" rx="14.9" ry="14.9"/>
		<path class="st4" d="M287.2,248.1L287.2,248.1c26.9-0.4,36.5-29.1,36.5-29.1c1.3-3.6-1.3-7.9-5.9-9.5L240.1,182
			c-4.5-1.6-9.2,0-10.5,3.7c0,0-15.1,18.4,9.2,45.4l0.1,0c-27,0.4-35.2,25.4-35.2,25.4c-1.3,3.6,1.3,7.9,5.9,9.5l77.7,27.5
			c4.5,1.6,9.2,0,10.5-3.7C297.7,289.7,311.5,275,287.2,248.1z M256.3,258.5c-9.8-3.5-15-14.3-11.5-24.1c3.5-9.8,14.3-15,24.1-11.5
			c9.8,3.5,15,14.3,11.5,24.1C276.9,256.9,266.1,262,256.3,258.5z"/>
		<g>
			<path class="st0" d="M266.4,222.3c-0.7-0.4-1.5-0.7-2.2-1c-9.8-3.5-20.6,1.7-24.1,11.5c-3.5,9.8,1.7,20.6,11.5,24.1
				c0.8,0.3,1.6,0.5,2.4,0.6c-8.3-4.2-12.5-14.1-9.3-23.1C247.9,225.4,257.3,220.3,266.4,222.3z"/>
			<path class="st0" d="M287.1,248.1L287.1,248.1c26.9-0.4,36.5-29.1,36.5-29.1c1.3-3.6-1.3-7.9-5.9-9.5l-4.6-1.6
				c4.5,1.6,7.2,5.8,5.9,9.5c0,0-9.6,28.7-36.6,29.1l0.1,0c24.3,26.9,10.5,41.6,10.5,41.6c-1.3,3.6-6,5.3-10.5,3.7l4.6,1.6
				c4.5,1.6,9.2,0,10.5-3.7C297.6,289.7,311.4,275,287.1,248.1z"/>
		</g>
	</g>
</g>
<g id="designed_by_freepik">
</g>
</svg>
