<svg width="128" height="125" viewBox="0 0 128 125" fill="none" xmlns="http://www.w3.org/2000/svg">
<g id="Wear a Mask">
<path id="Blob" fill-rule="evenodd" clip-rule="evenodd" d="M112.102 64.5153C112.383 98.5221 97.2253 123.365 68.2466 124.775C47.1253 125.803 59.7601 93.2816 33.289 71.6889C16.3449 57.8675 5.16127 21.956 46.922 12.6706C88.6828 3.38545 111.82 30.5086 112.102 64.5153Z" fill="#00B8A8"/>
<path id="Vector" d="M26.5868 113.896C23.958 109.14 24.3874 103.385 24.93 98.0004C26.1785 85.6153 28.1005 72.2784 36.9404 63.3545C39.2784 60.9944 42.1321 58.9933 45.4073 58.2825C47.9451 57.7321 50.3901 56.7712 52.6139 55.4505C53.1499 52.3702 50.1963 49.9446 48.1329 47.5642C45.8223 44.8989 44.3806 41.5185 44.068 38.0326C43.8832 35.9689 43.4416 33.1574 41.3327 33.0695C39.5991 32.9971 38.2941 30.9443 38.9898 29.3845C39.6858 27.8248 42.1081 27.3735 43.3381 28.5745C41.5834 22.1193 45.2901 14.6714 51.5564 12.0606C50.5346 10.6266 52.7648 8.90795 54.5354 9.11335C56.3061 9.31875 58.02 10.3685 59.7586 9.98067C59.1629 8.95093 60.1176 7.58307 61.2937 7.31932C62.4701 7.05556 63.6772 7.55674 64.7322 8.13123C71.5048 11.8185 75.9806 19.2548 76.0018 26.8557C76.177 25.4682 78.2985 24.9932 79.336 25.9511C80.3737 26.9088 80.3243 28.6232 79.5876 29.8198C78.8507 31.0162 77.5949 31.8017 76.3519 32.4845C76.3833 37.5249 74.43 42.5527 70.9872 46.2933C68.482 49.0151 64.9325 51.9023 65.7547 55.48C67.0873 55.1908 68.4355 56.6996 67.9692 57.9585C73.6832 57.4913 79.0155 60.8758 83.0637 64.8608C88.9982 70.7024 93.2634 78.1604 95.2535 86.1746C95.6011 87.5745 97.6306 87.9562 98.8861 87.2092C100.142 86.4624 100.787 85.0498 101.359 83.7229L112.662 57.5098C111.934 53.9784 112.523 50.3286 113.114 46.7723L115.073 34.9702C115.251 33.8989 116.014 32.4853 117.022 32.932C117.371 33.0862 117.565 33.4199 117.688 33.7875C117.745 33.9579 117.786 34.1355 117.821 34.3061C118.432 37.3324 118.628 40.4393 118.4 43.5163L122.313 36.9477C122.946 35.8849 124.258 34.7089 125.237 35.1488C125.605 35.2196 125.855 35.58 125.908 35.9477C126.047 36.4474 125.929 37.0484 125.77 37.5668C125.056 39.8886 123.892 42.0766 122.36 43.9791C124.426 44.6707 126.82 45.7209 127.181 47.8339C126.967 51.6646 124.09 56.0625 121.968 58.3455C122.455 58.0573 122.773 58.915 122.677 59.4648C120.35 72.6753 114.68 85.3062 106.318 95.9076C103.851 99.0362 100.985 101.457 96.4892 101.894C90.3626 102.489 86.3455 93.6204 83.0186 93.8576C83.0186 93.8576 79.9055 109.631 77.6515 111.738C75.3975 113.844 60.5855 118.268 56.122 116.794C51.6586 115.319 47.194 119.263 41.3327 118.867C35.2581 118.458 26.5868 113.896 26.5868 113.896Z" fill="white"/>
<path id="Vector_2" d="M119.676 61.2009C119.623 61.1313 119.587 61.0492 119.571 60.9637C119.513 60.6403 119.808 60.3022 120.142 60.3087C120.477 60.3154 120.758 60.6651 120.686 60.9858C120.614 61.3064 120.21 61.5089 119.904 61.3774C119.814 61.3391 119.735 61.2775 119.676 61.2009Z" fill="#00160A"/>
<path id="Vector_3" d="M62.2926 29.6148C62.0652 29.5644 61.9547 29.2846 62.0174 29.0643C62.0803 28.8441 62.2649 28.679 62.4555 28.5473C63.7529 27.6497 65.727 27.882 66.7716 29.055C66.8547 29.1485 66.9364 29.2583 66.9324 29.3824C66.9283 29.5065 66.7898 29.6265 66.6778 29.5692C66.0898 29.2682 65.4902 28.9634 64.8377 28.8471C64.1851 28.731 63.4593 28.8302 62.9625 29.2617C62.7644 29.4338 62.5508 29.6718 62.2926 29.6148Z" fill="#00160A"/>
<path id="Vector_4" d="M55.8219 29.5707C55.7506 29.7858 55.4651 29.8646 55.2432 29.8037C55.0212 29.7428 54.8428 29.5857 54.6548 29.455C54.0361 29.0255 53.2517 28.8614 52.4956 28.9096C51.7394 28.9577 51.0082 29.2063 50.3307 29.5397C50.1755 29.616 49.9909 29.4386 50.0003 29.2686C50.01 29.0984 50.1403 28.9602 50.2719 28.849C50.9764 28.2536 51.9341 27.9816 52.8625 28.0286C53.7911 28.0756 54.6887 28.4255 55.4535 28.9444C55.6708 29.0919 55.9035 29.3242 55.8219 29.5707Z" fill="black"/>
<path id="Vector_5" d="M119.995 63.603C119.917 63.7062 119.804 63.7789 119.689 63.8425C119.571 63.9084 119.44 63.9687 119.304 63.9584C119.123 63.9447 118.972 63.8052 118.898 63.643C118.715 63.2436 119.026 62.6975 119.472 62.6819C119.918 62.6664 120.263 63.2522 119.995 63.603Z" fill="#00160A"/>
<path id="Vector_6" d="M80.2878 80.2582C80.5044 80.3558 80.3501 80.6994 80.129 80.7872C79.9081 80.8748 79.6297 80.8776 79.4856 81.064C79.383 81.1967 79.3873 81.3786 79.3974 81.5448C79.4182 81.8846 79.4401 82.245 79.2752 82.5444C79.1104 82.8437 78.6804 83.0283 78.4054 82.821C78.153 82.6308 78.1755 82.2615 78.1667 81.9492C78.1579 81.6368 77.998 81.246 77.6801 81.2604C76.1233 81.3301 74.5665 81.3998 73.0098 81.4698C72.8123 81.4786 72.5877 81.4771 72.4534 81.3352C72.2692 81.1407 72.3941 80.7973 72.6266 80.6617C72.8593 80.5258 73.148 80.5369 73.4181 80.5523C74.562 80.6172 75.706 80.6821 76.8497 80.747C77.0275 80.7569 77.2138 80.7655 77.3746 80.6905C77.5354 80.6157 77.6562 80.4276 77.5912 80.265C77.4164 79.8295 77.6485 79.2782 78.0856 79.0909C78.2373 79.0258 78.3062 78.8539 78.3438 78.6957C78.3814 78.5373 78.4084 78.3652 78.5233 78.248C78.6381 78.1309 78.8794 78.1235 78.9397 78.2748C79.0788 78.6241 79.4193 78.8495 79.6586 79.1419C79.898 79.4341 80.0088 79.9199 79.7059 80.1483C79.7226 80.3625 80.0888 80.1687 80.2878 80.2582Z" fill="#00160A"/>
<g id="Vector_7">
<path id="Vector_8" d="M49.8414 40.8265C49.6242 40.8134 49.534 40.4717 49.7174 40.3569C49.9481 40.3409 50.0497 40.7285 49.8395 40.8238L49.8414 40.8265Z" fill="#FFB61D"/>
<path id="Vector_9" d="M67.2062 35.478C67.1437 35.3676 67.209 35.2086 67.3318 35.1713C67.4546 35.134 67.6001 35.2292 67.6121 35.3548C67.578 35.5182 67.3352 35.5924 67.2126 35.4767L67.2062 35.478Z" fill="#FFB61D"/>
<path id="Vector_10" d="M66.4777 33.3731C66.386 33.5513 66.0541 33.5016 66.0206 33.3046C66.0878 33.2149 66.1842 33.1466 66.292 33.1123C66.3834 33.1782 66.4538 33.272 66.491 33.3771L66.4777 33.3731Z" fill="#FFB61D"/>
<path id="Vector_11" d="M62.0341 41.3141C62.1702 41.3053 62.3078 41.3854 62.3649 41.5069C62.3189 41.6443 62.1451 41.7395 62.0148 41.6721C61.8842 41.6047 61.8969 41.3685 62.0416 41.3411L62.0341 41.3141Z" fill="#FFB61D"/>
<path id="Vector_12" d="M66.1115 41.5134C66.1784 41.3491 66.4901 41.4118 66.4861 41.5886C66.392 41.6802 66.2699 41.7436 66.14 41.7687C66.0353 41.7335 66.0093 41.5715 66.0977 41.5064L66.1115 41.5134Z" fill="#FFB61D"/>
<path id="Vector_13" d="M59.0927 34.0991C58.9553 34.0998 58.8542 34.2731 58.9236 34.3896C58.9927 34.5061 59.1962 34.5053 59.2645 34.3882C59.3327 34.271 59.2301 34.0985 59.0927 34.0991Z" fill="#FFB61D"/>
<path id="Vector_14" d="M50.8057 36.1544C50.6949 36.0731 50.5067 36.1523 50.4901 36.2872C50.4738 36.422 50.6378 36.5425 50.7649 36.489C50.8922 36.4357 50.9165 36.236 50.8057 36.1544Z" fill="#FFB61D"/>
<path id="Vector_15" d="M69.3258 36.4783C69.1936 36.5209 69.0433 36.3755 69.083 36.2445C69.1227 36.1135 69.3262 36.0709 69.4188 36.1731C69.5111 36.2755 69.4465 36.4665 69.3106 36.4965L69.3258 36.4783Z" fill="#FFB61D"/>
<path id="Vector_16" d="M58.3034 40.4895C58.2521 40.3633 58.0492 40.3343 57.9634 40.4409C57.8775 40.5475 57.9533 40.7345 58.0905 40.7541C58.2274 40.7737 58.3545 40.6159 58.3034 40.4895Z" fill="#FFB61D"/>
<path id="Vector_17" d="M58.0867 43.8255C57.9906 43.8529 57.9163 43.7381 57.8998 43.641C57.9947 43.4645 58.3237 43.5138 58.3605 43.7101C58.3025 43.796 58.1902 43.8437 58.0865 43.8262L58.0867 43.8255Z" fill="#FFB61D"/>
<path id="Vector_18" d="M59.4007 43.6675C59.2516 43.7036 59.0414 43.6319 59.0564 43.4819C59.1455 43.3918 59.2846 43.3269 59.4003 43.38C59.5162 43.4331 59.5227 43.6423 59.3965 43.6629L59.4007 43.6675Z" fill="#FFB61D"/>
<path id="Vector_19" d="M66.1396 43.5987C66.078 43.5543 66.0359 43.4845 66.0254 43.4102C66.0898 43.3194 66.1857 43.2505 66.2937 43.2183C66.3573 43.2813 66.421 43.3442 66.4846 43.4074C66.4144 43.526 66.2789 43.6046 66.1394 43.6078L66.1396 43.5987Z" fill="#FFB61D"/>
<path id="Vector_20" d="M60.2523 34.4776C60.1432 34.623 59.8592 34.5522 59.8341 34.3734C59.9268 34.18 60.2961 34.2661 60.2901 34.4799L60.2523 34.4776Z" fill="#FFB61D"/>
<path id="Vector_21" d="M63.2755 41.6206C63.1522 41.7371 62.9024 41.6153 62.9225 41.4484C62.9427 41.2816 63.2147 41.2205 63.3068 41.3623C63.2387 41.4112 63.2113 41.5074 63.2433 41.5841L63.2755 41.6206Z" fill="#FFB61D"/>
<path id="Vector_22" d="M55.751 34.1543C55.8832 34.1118 56.0335 34.2572 55.9938 34.3882C55.9541 34.5192 55.7506 34.562 55.6581 34.4596C55.5655 34.3572 55.6304 34.1661 55.7663 34.1362L55.751 34.1543Z" fill="#FFB61D"/>
<path id="Vector_23" d="M58.9819 38.3985C59.1115 38.2921 59.3479 38.3848 59.3674 38.5495C59.2783 38.6289 59.157 38.6942 59.042 38.6601C58.9269 38.6262 58.8722 38.4471 58.9769 38.3892L58.9819 38.3985Z" fill="#FFB61D"/>
<path id="Vector_24" d="M61.9293 39.4637C62.0183 39.2861 62.3485 39.3329 62.3826 39.528C62.2837 39.7056 61.9535 39.658 61.911 39.4599L61.9293 39.4637Z" fill="#FFB61D"/>
<path id="Vector_25" d="M62.1113 40.4832C62.2025 40.3514 62.4623 40.4369 62.4539 40.5959C62.3949 40.688 62.2998 40.7571 62.1927 40.7855C62.086 40.7295 62.0426 40.5816 62.1023 40.4784L62.1113 40.4832Z" fill="#FFB61D"/>
<path id="Vector_26" d="M66.4105 34.2903C66.3257 34.1816 66.1207 34.2079 66.0673 34.3345C66.0138 34.4609 66.1394 34.6218 66.2779 34.6042C66.4163 34.5862 66.4955 34.399 66.4105 34.2903Z" fill="#FFB61D"/>
<path id="Vector_27" d="M64.2072 44.3648C64.2334 44.2464 64.4459 44.3037 64.459 44.4245C64.4723 44.545 64.3729 44.6459 64.2814 44.7276C64.2121 44.684 64.1387 44.6353 64.1093 44.5599C64.0801 44.4845 64.1239 44.3783 64.2061 44.3762L64.2072 44.3648Z" fill="#FFB61D"/>
<path id="Vector_28" d="M53.9671 33.2703C53.9158 33.1441 53.7129 33.115 53.6271 33.2216C53.5414 33.3282 53.6172 33.5151 53.7541 33.5349C53.8911 33.5545 54.0182 33.3965 53.9671 33.2703Z" fill="#FFB61D"/>
<path id="Vector_29" d="M59.2376 44.3649C59.1676 44.2558 58.9729 44.2629 58.9113 44.3771C58.8499 44.4915 58.9538 44.6533 59.0854 44.6485C59.2168 44.6434 59.3078 44.4742 59.2376 44.3649Z" fill="#FFB61D"/>
<path id="Vector_30" d="M50.6101 40.2967C50.6842 40.2148 50.8355 40.3144 50.8321 40.4242C50.8289 40.5337 50.7389 40.6192 50.6554 40.6921C50.4755 40.6639 50.4451 40.3616 50.6157 40.2995L50.6101 40.2967Z" fill="#FFB61D"/>
<path id="Vector_31" d="M60.2558 42.6128C60.1796 42.6592 60.1036 42.7053 60.0274 42.7517C59.8881 42.7015 59.8718 42.4744 60.0025 42.4055C60.1332 42.3364 60.317 42.475 60.2828 42.6168L60.2558 42.6128Z" fill="#FFB61D"/>
<path id="Vector_32" d="M69.1342 40.4041C69.0917 40.2748 69.3491 40.2331 69.3997 40.3595C69.4504 40.4859 69.348 40.6226 69.2338 40.6993C69.1211 40.6502 69.0479 40.5253 69.0614 40.405L69.1342 40.4041Z" fill="#FFB61D"/>
<path id="Vector_33" d="M66.0238 40.5221C66.1074 40.4039 66.2902 40.3674 66.4143 40.4441C66.4467 40.6213 66.2181 40.7839 66.0567 40.6988C66.0408 40.6407 66.0249 40.5825 66.009 40.5244L66.0238 40.5221Z" fill="#FFB61D"/>
<path id="Vector_34" d="M53.7379 39.3216C53.8701 39.2788 54.0204 39.4241 53.9804 39.5552C53.9407 39.6862 53.7372 39.729 53.6449 39.6266C53.5524 39.5244 53.617 39.3331 53.7529 39.3032L53.7379 39.3216Z" fill="#FFB61D"/>
<path id="Vector_35" d="M68.1072 32.3909C68.1087 32.2769 68.2298 32.1796 68.3438 32.2006C68.458 32.2217 68.5348 32.3555 68.4942 32.4621C68.374 32.5514 68.1812 32.5238 68.0922 32.4044L68.1072 32.3909Z" fill="#FFB61D"/>
<path id="Vector_36" d="M65.1705 38.3929C65.2821 38.3051 65.4814 38.4047 65.4745 38.5448C65.3764 38.6946 65.1149 38.6946 65.0166 38.545C65.0681 38.4945 65.1196 38.4441 65.1712 38.3936L65.1705 38.3929Z" fill="#FFB61D"/>
<path id="Vector_37" d="M52.5067 41.3926C52.6194 41.2757 52.8431 41.2957 52.9324 41.4305C52.8646 41.5224 52.7757 41.6165 52.6602 41.6218C52.5447 41.6273 52.4357 41.48 52.5155 41.3981L52.5067 41.3926Z" fill="#FFB61D"/>
<path id="Vector_38" d="M69.3523 42.5726C69.3063 42.6329 69.2359 42.6744 69.1602 42.6858C69.0223 42.6086 69.0228 42.3679 69.1707 42.312C69.3188 42.256 69.4787 42.4816 69.36 42.5848L69.3523 42.5726Z" fill="#FFB61D"/>
<path id="Vector_39" d="M50.7462 42.6342C50.8544 42.5602 50.8381 42.3694 50.7187 42.3144C50.5996 42.2594 50.4392 42.3687 50.4504 42.4976C50.4613 42.6264 50.638 42.7079 50.7462 42.6342Z" fill="#FFB61D"/>
<path id="Vector_40" d="M69.2917 38.7089C69.1835 38.8172 69.0011 38.592 69.1058 38.4804C69.2104 38.3687 69.4132 38.4258 69.5066 38.5467C69.4424 38.6097 69.378 38.6727 69.3138 38.7357L69.2917 38.7089Z" fill="#FFB61D"/>
<path id="Vector_41" d="M49.5435 33.528C49.5139 33.3439 49.8179 33.2234 49.9267 33.3763C49.8361 33.4931 49.7457 33.6098 49.6551 33.7265C49.5892 33.6814 49.5435 33.6089 49.5315 33.531L49.5435 33.528Z" fill="#FFB61D"/>
<path id="Vector_42" d="M50.7081 38.7089C50.5999 38.8172 50.4174 38.592 50.5222 38.4804C50.6267 38.3687 50.8296 38.4258 50.923 38.5467C50.8588 38.6097 50.7944 38.6727 50.73 38.7357L50.7081 38.7089Z" fill="#FFB61D"/>
<path id="Vector_43" d="M67.2008 33.442C67.1085 33.3554 67.1266 33.184 67.235 33.1178C67.3434 33.0515 67.5082 33.1115 67.5462 33.2312C67.4926 33.3519 67.3558 33.4315 67.2221 33.4203L67.2008 33.442Z" fill="#FFB61D"/>
<path id="Vector_44" d="M53.562 34.371C53.6472 34.2212 53.9031 34.2126 53.9989 34.3563C53.9688 34.5663 53.5856 34.5777 53.5425 34.3697L53.562 34.371Z" fill="#FFB61D"/>
<path id="Vector_45" d="M61.36 35.2387C61.3623 35.346 61.3246 35.4534 61.2554 35.5362C61.1352 35.6025 60.9742 35.454 61.0159 35.3251C61.0575 35.196 61.2434 35.1498 61.3578 35.2255L61.36 35.2387Z" fill="#FFB61D"/>
<path id="Vector_46" d="M58.2023 42.4709C58.1634 42.3491 57.9756 42.3076 57.8876 42.4016C57.7993 42.4953 57.8569 42.6756 57.9837 42.7037C58.1106 42.7317 58.2411 42.5926 58.2023 42.4709Z" fill="#FFB61D"/>
<path id="Vector_47" d="M62.2502 43.4753C62.3063 43.6194 62.1953 43.8008 62.0394 43.8202C61.9364 43.7774 61.8883 43.64 61.9426 43.544C61.9969 43.4481 62.1414 43.4157 62.2329 43.4789L62.2502 43.4753Z" fill="#FFB61D"/>
<path id="Vector_48" d="M55.6385 44.5484C55.6385 44.41 55.7218 44.2747 55.8468 44.2104C55.9369 44.2991 56.0018 44.4359 55.9466 44.549C55.8912 44.6621 55.6778 44.6655 55.6592 44.5414L55.6385 44.5484Z" fill="#FFB61D"/>
<path id="Vector_49" d="M67.2452 43.3979C67.3533 43.2894 67.5358 43.5146 67.4311 43.6263C67.3263 43.7382 67.1237 43.6808 67.0303 43.5601C67.0945 43.4971 67.1589 43.4342 67.223 43.371L67.2452 43.3979Z" fill="#FFB61D"/>
<path id="Vector_50" d="M58.0306 34.2792C58.1387 34.1709 58.3214 34.3961 58.2167 34.5077C58.1119 34.6194 57.9093 34.5623 57.8157 34.4414C57.8801 34.3784 57.9443 34.3154 58.0087 34.2524L58.0306 34.2792Z" fill="#FFB61D"/>
<path id="Vector_51" d="M51.662 40.6354C51.583 40.5514 51.6907 40.4035 51.8071 40.4073C51.9234 40.4109 52.0147 40.5053 52.0795 40.6003C51.9874 40.7319 51.7686 40.7519 51.6536 40.639L51.662 40.6354Z" fill="#FFB61D"/>
<path id="Vector_52" d="M53.9025 37.1322C54.0127 37.1235 54.0569 37.2931 53.9813 37.3723C53.9055 37.4513 53.78 37.4551 53.6703 37.4425C53.57 37.3087 53.7446 37.0879 53.9017 37.1496L53.9025 37.1322Z" fill="#FFB61D"/>
<path id="Vector_53" d="M59.3243 46.6375C59.2095 46.7814 58.9255 46.7075 58.8984 46.5265C58.9965 46.3557 59.3254 46.4421 59.3235 46.6382L59.3243 46.6375Z" fill="#FFB61D"/>
<path id="Vector_54" d="M53.6219 40.6934C53.5603 40.5757 53.6413 40.4076 53.7746 40.388C53.9079 40.3684 54.0369 40.5184 53.9871 40.6414C53.9371 40.7642 53.7267 40.7785 53.6666 40.6601L53.6219 40.6934Z" fill="#FFB61D"/>
<path id="Vector_55" d="M58.0093 44.6614C57.9127 44.6919 57.8431 44.5708 57.8171 44.4743C57.9163 44.3249 58.1771 44.3233 58.278 44.4718C58.2121 44.5617 58.1168 44.6308 58.0097 44.6662L58.0093 44.6614Z" fill="#FFB61D"/>
<path id="Vector_56" d="M58.884 36.417C58.9212 36.2215 59.2436 36.1657 59.3466 36.3372C59.2983 36.5201 59.0062 36.5757 58.8915 36.4236L58.884 36.417Z" fill="#FFB61D"/>
<path id="Vector_57" d="M69.3525 39.5075C69.3139 39.3857 69.1258 39.3442 69.0378 39.4382C68.9496 39.5319 69.0071 39.7125 69.134 39.7405C69.2609 39.7683 69.3914 39.6295 69.3525 39.5075Z" fill="#FFB61D"/>
<path id="Vector_58" d="M60.3708 40.6739C60.2592 40.7618 60.06 40.6621 60.0668 40.522C60.1649 40.3722 60.4264 40.3722 60.5247 40.5218C60.4732 40.5722 60.4217 40.6227 60.3704 40.6733L60.3708 40.6739Z" fill="#FFB61D"/>
<path id="Vector_59" d="M58.1627 46.3364C58.2595 46.306 58.3291 46.427 58.3548 46.5235C58.2557 46.673 57.9951 46.6745 57.8942 46.526C57.9601 46.436 58.0554 46.3669 58.1623 46.3315L58.1627 46.3364Z" fill="#FFB61D"/>
<path id="Vector_60" d="M70.5138 32.2386C70.5645 32.2885 70.6154 32.3383 70.666 32.388C70.5761 32.523 70.3436 32.57 70.253 32.4356C70.1624 32.301 70.4172 32.1101 70.4919 32.2538L70.5138 32.2386Z" fill="#FFB61D"/>
<path id="Vector_61" d="M66.145 35.5375C66.2448 35.6235 66.4309 35.5615 66.4569 35.4339C66.4829 35.306 66.3352 35.1788 66.2094 35.2205C66.0836 35.2624 66.0452 35.4516 66.145 35.5375Z" fill="#FFB61D"/>
<path id="Vector_62" d="M59.9499 43.6034C59.9899 43.5122 60.1358 43.4915 60.2007 43.5676C60.2734 43.6826 60.2073 43.868 60.0704 43.8834C59.9334 43.8988 59.8396 43.6809 59.9598 43.6146L59.9499 43.6034Z" fill="#FFB61D"/>
<path id="Vector_63" d="M53.7492 41.3968C53.846 41.3665 53.9156 41.4876 53.9413 41.5841C53.8765 41.6747 53.7808 41.7434 53.6732 41.7769C53.612 41.7299 53.5697 41.6604 53.5566 41.5854C53.621 41.522 53.6854 41.4586 53.7498 41.3954L53.7492 41.3968Z" fill="#FFB61D"/>
<path id="Vector_64" d="M67.5606 38.5788C67.5877 38.7559 67.3234 38.892 67.1901 38.7696C67.1332 38.5922 67.4318 38.4279 67.5327 38.5853L67.5606 38.5788Z" fill="#FFB61D"/>
<path id="Vector_65" d="M57.0774 38.4348C57.166 38.4879 57.215 38.5976 57.1948 38.6975C57.0847 38.7394 56.9636 38.7529 56.8466 38.7358C56.8105 38.6802 56.7968 38.6107 56.8088 38.5458C56.899 38.5077 56.9891 38.4698 57.0795 38.4316L57.0774 38.4348Z" fill="#FFB61D"/>
<path id="Vector_66" d="M62.1953 42.4565C62.2354 42.5376 62.2451 42.633 62.2217 42.7202C62.1165 42.81 61.9192 42.7268 61.913 42.59C61.907 42.4535 62.0961 42.3537 62.2088 42.4339L62.1953 42.4565Z" fill="#FFB61D"/>
<path id="Vector_67" d="M68.5724 40.6657C68.4498 40.7753 68.2139 40.6881 68.1952 40.5265C68.236 40.4332 68.3577 40.383 68.4543 40.4199C68.5507 40.4568 68.6058 40.5747 68.5715 40.6706L68.5724 40.6657Z" fill="#FFB61D"/>
<path id="Vector_68" d="M58.201 33.3771C58.2718 33.4237 58.3034 33.5204 58.2735 33.5988C58.1668 33.6978 57.953 33.6645 57.9163 33.525C57.8796 33.3858 58.1155 33.2674 58.1872 33.3931L58.201 33.3771Z" fill="#FFB61D"/>
<path id="Vector_69" d="M50.7782 39.5702C50.7851 39.4424 50.623 39.3394 50.5069 39.3975C50.3908 39.4556 50.3809 39.645 50.4901 39.7146C50.5996 39.7843 50.7716 39.6979 50.7782 39.5702Z" fill="#FFB61D"/>
<path id="Vector_70" d="M61.1024 38.8377C60.9742 38.7976 60.9648 38.5893 61.0833 38.5267C61.2017 38.4644 61.3662 38.5653 61.3754 38.6969C61.32 38.7831 61.2082 38.8301 61.1062 38.8105L61.1024 38.8377Z" fill="#FFB61D"/>
<path id="Vector_71" d="M50.5692 34.2761C50.4833 34.163 50.7508 34.0661 50.8113 34.194C50.8721 34.3221 50.7643 34.4666 50.6473 34.5485C50.5623 34.495 50.517 34.387 50.5389 34.2903L50.5692 34.2761Z" fill="#FFB61D"/>
<path id="Vector_72" d="M59.2084 42.573C59.1622 42.6334 59.0914 42.6749 59.0154 42.6863C58.954 42.6423 58.9119 42.5728 58.9019 42.4988C58.9635 42.408 59.0592 42.3402 59.1665 42.3115C59.2719 42.3469 59.3003 42.5087 59.2127 42.5765L59.2084 42.573Z" fill="#FFB61D"/>
<path id="Vector_73" d="M68.346 42.6491C68.2556 42.687 68.1652 42.725 68.0748 42.7631C68.0132 42.7151 67.9703 42.6447 67.9557 42.5689C68.0358 42.5044 68.1283 42.4385 68.2313 42.4465C68.3346 42.4547 68.4237 42.584 68.3554 42.6605L68.346 42.6491Z" fill="#FFB61D"/>
<path id="Vector_74" d="M61.1234 43.3384C61.2116 43.3833 61.2996 43.4281 61.3879 43.4732C61.2919 43.5728 61.1646 43.643 61.0281 43.6721C60.9665 43.628 60.924 43.5589 60.9135 43.4848C60.9592 43.4243 61.0302 43.3828 61.1062 43.3725L61.1234 43.3384Z" fill="#FFB61D"/>
<path id="Vector_75" d="M50.7675 43.4078C50.8383 43.4546 50.8699 43.5511 50.8401 43.6296C50.7334 43.7284 50.5196 43.6952 50.4829 43.5557C50.4461 43.4164 50.6821 43.2983 50.7538 43.4238L50.7675 43.4078Z" fill="#FFB61D"/>
<path id="Vector_76" d="M57.982 39.6837C58.0131 39.8649 58.3661 39.8069 58.3351 39.6255C58.304 39.4442 57.9511 39.5023 57.982 39.6837Z" fill="#FFB61D"/>
<path id="Vector_77" d="M61.9932 35.0967C62.1598 35.0793 62.2998 35.2876 62.218 35.4309C62.1368 35.4919 62.0055 35.4721 61.9467 35.39C61.888 35.3078 61.9142 35.1797 62.0003 35.126L61.9932 35.0967Z" fill="#FFB61D"/>
<path id="Vector_78" d="M49.6689 39.5215C49.7597 39.4326 49.9331 39.5672 49.8928 39.6866C49.8522 39.8063 49.6839 39.8444 49.5693 39.7877C49.4922 39.7012 49.5388 39.5419 49.6508 39.5084L49.6689 39.5215Z" fill="#FFB61D"/>
<path id="Vector_79" d="M58.0073 37.3663C58.1009 37.2352 58.3604 37.3231 58.3518 37.483C58.2765 37.5843 58.1316 37.6294 58.0105 37.5894C57.9539 37.5287 57.9517 37.4263 58.0056 37.3633L58.0073 37.3663Z" fill="#FFB61D"/>
<path id="Vector_80" d="M67.2991 34.1774C67.3623 34.218 67.4037 34.2892 67.4078 34.3632C67.3416 34.5262 67.0327 34.4672 67.0338 34.2918C67.0866 34.2045 67.1993 34.1567 67.3002 34.1786L67.2991 34.1774Z" fill="#FFB61D"/>
<path id="Vector_81" d="M52.8712 44.5294C52.9328 44.6471 52.8519 44.815 52.7186 44.8346C52.5853 44.8542 52.4562 44.7042 52.506 44.5814C52.5561 44.4584 52.7664 44.444 52.8265 44.5624L52.8712 44.5294Z" fill="#FFB61D"/>
<path id="Vector_82" d="M55.6856 42.4632C55.8144 42.4495 55.9792 42.4554 56.0284 42.573C55.9702 42.6636 55.8751 42.7308 55.7691 42.7558C55.7081 42.723 55.6428 42.6859 55.6147 42.6233C55.5864 42.5608 55.6214 42.4685 55.6911 42.4666L55.6856 42.4632Z" fill="#FFB61D"/>
<path id="Vector_83" d="M69.3138 34.4803C69.4372 34.4382 69.4737 34.2513 69.3748 34.1673C69.2758 34.0832 69.0927 34.1458 69.068 34.2718C69.0435 34.398 69.1902 34.5225 69.3138 34.4803Z" fill="#FFB61D"/>
<path id="Vector_84" d="M64.3173 35.279C64.4551 35.3613 64.368 35.6207 64.2074 35.6063C64.1157 35.5758 64.0603 35.4665 64.091 35.3763C64.1217 35.2861 64.2329 35.2313 64.3248 35.2611L64.3173 35.279Z" fill="#FFB61D"/>
<path id="Vector_85" d="M60.2703 44.4015C60.2347 44.2256 59.8925 44.2924 59.9281 44.4681C59.9638 44.644 60.306 44.5772 60.2703 44.4015Z" fill="#FFB61D"/>
<path id="Vector_86" d="M51.4882 34.438C51.5238 34.6139 51.866 34.5472 51.8304 34.3713C51.7949 34.1953 51.4526 34.2621 51.4882 34.438Z" fill="#FFB61D"/>
<path id="Vector_87" d="M68.4614 43.6728C68.3774 43.808 68.1132 43.7227 68.1278 43.5649C68.1589 43.475 68.2703 43.4206 68.3622 43.4507C68.4539 43.4809 68.5097 43.59 68.4794 43.6804L68.4614 43.6728Z" fill="#FFB61D"/>
<path id="Vector_88" d="M50.6859 33.1367C50.8197 33.087 50.9755 33.2479 50.918 33.3762C50.7999 33.4384 50.6505 33.4386 50.5322 33.3771C50.5477 33.2842 50.6097 33.1999 50.6947 33.1563L50.6859 33.1367Z" fill="#FFB61D"/>
<path id="Vector_89" d="M58.0874 35.5433C58.0243 35.5026 57.9826 35.4316 57.9788 35.3577C58.0449 35.1944 58.3538 35.2536 58.3527 35.4291C58.2999 35.5163 58.1872 35.5639 58.0863 35.542L58.0874 35.5433Z" fill="#FFB61D"/>
<path id="Vector_90" d="M64.0908 41.7368C64.0311 41.6309 64.1327 41.4781 64.2557 41.4872C64.3789 41.4965 64.4564 41.6597 64.3853 41.759C64.3145 41.8582 64.1335 41.8441 64.0782 41.7358L64.0908 41.7368Z" fill="#FFB61D"/>
<path id="Vector_91" d="M60.9135 36.4196C60.9547 36.3577 61.0273 36.3168 61.1026 36.313C61.2688 36.3777 61.2087 36.681 61.0298 36.6798C60.941 36.6279 60.8922 36.5175 60.9148 36.4185L60.9135 36.4196Z" fill="#FFB61D"/>
<path id="Vector_92" d="M69.4845 33.1863C69.4936 33.2502 69.5026 33.314 69.5114 33.3778C69.3916 33.4377 69.2428 33.4381 69.1226 33.3791C69.1183 33.2116 69.3338 33.0825 69.4837 33.1625L69.4845 33.1863Z" fill="#FFB61D"/>
<path id="Vector_93" d="M57.1944 45.4614C57.113 45.3015 56.802 45.4536 56.8831 45.6137C56.9643 45.7736 57.2755 45.6213 57.1944 45.4614Z" fill="#FFB61D"/>
<path id="Vector_94" d="M64.4012 37.3253C64.2724 37.1995 64.0278 37.4412 64.1569 37.5667C64.2857 37.6925 64.5302 37.4508 64.4012 37.3253Z" fill="#FFB61D"/>
<path id="Vector_95" d="M61.2209 33.227C61.1396 33.0671 60.8283 33.2194 60.9097 33.3793C60.9908 33.5392 61.3021 33.3871 61.2209 33.227Z" fill="#FFB61D"/>
<path id="Vector_96" d="M68.3549 41.6569C68.2763 41.4907 67.9524 41.6382 68.0312 41.8046C68.1097 41.971 68.4337 41.8233 68.3549 41.6569Z" fill="#FFB61D"/>
<path id="Vector_97" d="M50.4244 41.6213C50.5041 41.7802 50.813 41.6306 50.7331 41.472C50.6535 41.3133 50.3446 41.4627 50.4244 41.6213Z" fill="#FFB61D"/>
<path id="Vector_98" d="M63.2342 44.6237C63.1928 44.6856 63.1205 44.7263 63.0451 44.7303C62.8787 44.6654 62.9388 44.3622 63.1179 44.3633C63.2065 44.4151 63.2553 44.5257 63.2329 44.6247L63.2342 44.6237Z" fill="#FFB61D"/>
<path id="Vector_99" d="M57.2302 39.4979C57.1504 39.3391 56.8417 39.4887 56.9213 39.6473C57.001 39.8059 57.3099 39.6566 57.2302 39.4979Z" fill="#FFB61D"/>
<path id="Vector_100" d="M67.2967 36.3051C67.3948 36.4053 67.2909 36.6078 67.1503 36.5901C67.0483 36.5612 66.992 36.4306 67.0419 36.3386C67.0917 36.2465 67.2333 36.2193 67.3149 36.2859L67.2967 36.3051Z" fill="#FFB61D"/>
<path id="Vector_101" d="M59.9831 46.6768C59.9318 46.6265 59.8805 46.5759 59.8292 46.5256C59.9248 46.3754 60.1854 46.3724 60.2843 46.5203C60.2349 46.6339 60.1064 46.7089 59.9812 46.6973L59.9831 46.6768Z" fill="#FFB61D"/>
<path id="Vector_102" d="M69.5461 35.4681C69.4946 35.5185 69.4433 35.5688 69.3917 35.6192C69.2387 35.5254 69.2357 35.2695 69.3866 35.1724C69.5021 35.2208 69.5787 35.347 69.5667 35.4698L69.5461 35.4681Z" fill="#FFB61D"/>
<path id="Vector_103" d="M54.7188 35.2794C54.7603 35.2175 54.8326 35.1769 54.908 35.1729C55.0743 35.2377 55.014 35.5409 54.8352 35.5398C54.7463 35.488 54.6978 35.3774 54.7201 35.2784L54.7188 35.2794Z" fill="#FFB61D"/>
<path id="Vector_104" d="M50.9508 35.5458C50.8548 35.5966 50.719 35.5479 50.6788 35.4485C50.6387 35.3488 50.7041 35.222 50.8095 35.1948C50.9506 35.2176 51.0279 35.4091 50.9407 35.5203L50.9508 35.5458Z" fill="#FFB61D"/>
<path id="Vector_105" d="M63.2461 36.4938C63.2452 36.3168 62.9009 36.3183 62.9017 36.4953C62.9024 36.6722 63.2467 36.6708 63.2461 36.4938Z" fill="#FFB61D"/>
<path id="Vector_106" d="M61.2982 42.5737C61.2171 42.4138 60.9058 42.5659 60.9872 42.726C61.0683 42.8859 61.3796 42.7336 61.2982 42.5737Z" fill="#FFB61D"/>
<path id="Vector_107" d="M70.0718 34.438C70.1074 34.6139 70.4498 34.5472 70.4142 34.3713C70.3786 34.1953 70.0362 34.2621 70.0718 34.438Z" fill="#FFB61D"/>
<path id="Vector_108" d="M59.863 39.4926C59.9768 39.3757 60.2013 39.3969 60.2902 39.5328C60.2266 39.6232 60.1311 39.6915 60.024 39.7235C59.9431 39.6714 59.8819 39.5905 59.8546 39.4995L59.863 39.4926Z" fill="#FFB61D"/>
<path id="Vector_109" d="M67.0527 39.4722C67.1792 39.3983 67.3683 39.4766 67.4022 39.617C67.329 39.7153 67.1869 39.7579 67.0701 39.7168C67.0134 39.6566 67.0111 39.5546 67.0647 39.492L67.0527 39.4722Z" fill="#FFB61D"/>
<path id="Vector_110" d="M59.9981 38.4651C59.9526 38.3836 60.0557 38.2829 60.1495 38.2955C60.2435 38.3084 60.3113 38.3893 60.3573 38.4706C60.2864 38.6138 60.04 38.6189 59.9631 38.479L59.9981 38.4651Z" fill="#FFB61D"/>
<path id="Vector_111" d="M70.2436 40.4857C70.3275 40.3505 70.5918 40.436 70.5772 40.5936C70.546 40.6835 70.4346 40.7379 70.3427 40.7078C70.2509 40.6776 70.1951 40.5685 70.2253 40.4783L70.2436 40.4857Z" fill="#FFB61D"/>
<path id="Vector_112" d="M59.0156 39.4235C59.1238 39.365 59.2792 39.4644 59.27 39.5853C59.2607 39.7062 59.0942 39.7821 58.9931 39.7126C58.8919 39.6428 58.9063 39.4654 59.0167 39.4109L59.0156 39.4235Z" fill="#FFB61D"/>
<path id="Vector_113" d="M59.9076 41.5106C59.9729 41.4561 60.0779 41.4546 60.1444 41.5075C60.1502 41.6438 60.0678 41.7801 59.943 41.8403C59.8188 41.7835 59.796 41.5884 59.9038 41.5054L59.9076 41.5106Z" fill="#FFB61D"/>
<path id="Vector_114" d="M69.0382 41.6658C69.167 41.7915 69.4115 41.5499 69.2827 41.4243C69.1539 41.2988 68.9094 41.5402 69.0382 41.6658Z" fill="#FFB61D"/>
<path id="Vector_115" d="M57.1126 35.5873C56.9653 35.467 57.1375 35.179 57.3163 35.2464C57.3968 35.3817 57.277 35.5833 57.1175 35.581L57.1126 35.5873Z" fill="#FFB61D"/>
<path id="Vector_116" d="M57.1527 34.3303C57.0729 34.1717 56.7642 34.3213 56.8438 34.4799C56.9237 34.6385 57.2324 34.4892 57.1527 34.3303Z" fill="#FFB61D"/>
<path id="Vector_117" d="M49.4917 34.5558C49.4301 34.5114 49.3881 34.4418 49.3773 34.3677C49.4406 34.2777 49.5351 34.2097 49.6414 34.1772C49.7489 34.3045 49.6592 34.5347 49.4924 34.559L49.4917 34.5558Z" fill="#FFB61D"/>
<path id="Vector_118" d="M67.15 42.7833C67.0283 42.7831 66.9356 42.6331 66.9933 42.5277C67.051 42.4224 67.232 42.4174 67.2945 42.52C67.3567 42.6228 67.2629 42.7776 67.1414 42.7713L67.15 42.7833Z" fill="#FFB61D"/>
<path id="Vector_119" d="M69.24 32.2646C69.3488 32.2996 69.4446 32.3727 69.506 32.4675C69.4193 32.5918 69.2228 32.6247 69.0988 32.5356C69.1344 32.4454 69.1698 32.355 69.2052 32.2649L69.24 32.2646Z" fill="#FFB61D"/>
<path id="Vector_120" d="M59.0154 41.51C59.0171 41.405 59.1315 41.317 59.2359 41.3402C59.3402 41.3631 59.4048 41.491 59.3604 41.5866C59.2397 41.6671 59.0541 41.6283 58.9774 41.5064L59.0154 41.51Z" fill="#FFB61D"/>
<path id="Vector_121" d="M60.8929 37.4917C60.8362 37.3855 60.9257 37.2351 61.0479 37.2315C61.17 37.2279 61.2686 37.3729 61.2183 37.4822C61.128 37.5414 61.0013 37.5418 60.9107 37.483L60.8929 37.4917Z" fill="#FFB61D"/>
<path id="Vector_122" d="M52.8404 33.3445C52.803 33.4872 52.5928 33.5499 52.4806 33.452C52.4383 33.3641 52.484 33.2438 52.5772 33.2106C52.6703 33.1773 52.7878 33.2472 52.7949 33.3441L52.8404 33.3445Z" fill="#FFB61D"/>
<path id="Vector_123" d="M51.4128 39.655C51.378 39.5671 51.4287 39.4559 51.5188 39.4231C51.6088 39.3902 51.7212 39.4418 51.7534 39.5307C51.7243 39.67 51.5334 39.7473 51.4128 39.6689V39.655Z" fill="#FFB61D"/>
<path id="Vector_124" d="M54.7567 41.6989C54.6955 41.6532 54.653 41.5839 54.6407 41.5093C54.7045 41.4474 54.7683 41.3855 54.8322 41.3237C54.9975 41.393 54.9368 41.6941 54.7571 41.6966L54.7567 41.6989Z" fill="#FFB61D"/>
<path id="Vector_125" d="M51.6573 42.7519C51.535 42.7959 51.4308 42.6 51.5212 42.5077C51.6116 42.4152 51.7878 42.462 51.8507 42.5743C51.787 42.637 51.723 42.7 51.6592 42.763L51.6573 42.7519Z" fill="#FFB61D"/>
<path id="Vector_126" d="M51.504 33.569C51.4139 33.4602 51.5156 33.2641 51.6584 33.2717C51.7475 33.3237 51.7966 33.4341 51.7752 33.5333C51.6921 33.5732 51.5953 33.5847 51.5049 33.5658L51.504 33.569Z" fill="#FFB61D"/>
<path id="Vector_127" d="M66.368 38.5083C66.4772 38.5373 66.4319 38.7231 66.3212 38.7472C66.2106 38.7712 66.1048 38.6972 66.0181 38.6258C66.0956 38.5222 66.2437 38.4756 66.368 38.5158V38.5083Z" fill="#FFB61D"/>
<path id="Vector_128" d="M68.2135 38.6069C68.1531 38.5635 68.093 38.5201 68.0327 38.4769C68.1276 38.3208 68.397 38.316 68.4975 38.4685C68.4436 38.5553 68.3311 38.6027 68.23 38.5816L68.2135 38.6069Z" fill="#FFB61D"/>
<path id="Vector_129" d="M70.0688 33.5191C70.0008 33.426 70.0905 33.2739 70.2073 33.2779C70.3238 33.2821 70.4043 33.4281 70.3509 33.5301C70.2629 33.5901 70.1369 33.5908 70.0484 33.5313L70.0688 33.5191Z" fill="#FFB61D"/>
<path id="Vector_130" d="M63.2357 39.6863C63.1245 39.7743 62.9251 39.6749 62.9322 39.5346C62.9693 39.4716 63.0417 39.4301 63.1159 39.4297C63.2201 39.4661 63.2853 39.5864 63.2578 39.6915L63.2357 39.6863Z" fill="#FFB61D"/>
<path id="Vector_131" d="M53.8456 43.272C53.9061 43.3173 53.9669 43.3624 54.0274 43.4076C53.9291 43.5001 53.8048 43.5663 53.6719 43.597C53.5809 43.4894 53.6855 43.2933 53.8274 43.3051L53.8456 43.272Z" fill="#FFB61D"/>
<path id="Vector_132" d="M52.8581 35.2788C52.7769 35.1189 52.4657 35.271 52.5468 35.4311C52.6282 35.591 52.9394 35.4387 52.8581 35.2788Z" fill="#FFB61D"/>
<path id="Vector_133" d="M51.466 43.4856C51.5124 43.4254 51.583 43.3837 51.6592 43.3721C51.7204 43.4176 51.7629 43.4869 51.7751 43.5613C51.7107 43.6242 51.6465 43.6872 51.5824 43.7504C51.495 43.6952 51.4473 43.5857 51.4671 43.4856H51.466Z" fill="#FFB61D"/>
<path id="Vector_134" d="M58.905 33.4495C59.013 33.5795 59.2661 33.377 59.1581 33.247C59.0502 33.1168 58.7971 33.3195 58.905 33.4495Z" fill="#FFB61D"/>
<path id="Vector_135" d="M68.1115 37.4843C68.1023 37.3099 68.409 37.2402 68.4788 37.4009C68.456 37.5612 68.1991 37.6217 68.1049 37.4888L68.1115 37.4843Z" fill="#FFB61D"/>
<path id="Vector_136" d="M70.244 39.648C70.1809 39.766 69.9503 39.6607 70.0016 39.5372C70.0145 39.4416 70.1373 39.3781 70.2249 39.4218C70.3127 39.4656 70.3329 39.6002 70.2616 39.6668L70.244 39.648Z" fill="#FFB61D"/>
<path id="Vector_137" d="M60.1749 36.4451C60.0525 36.4891 59.9484 36.2932 60.0388 36.2009C60.1292 36.1086 60.3054 36.1554 60.3683 36.2675C60.3046 36.3305 60.2406 36.3932 60.1768 36.4562L60.1749 36.4451Z" fill="#FFB61D"/>
<path id="Vector_138" d="M52.7463 43.3862C52.8292 43.3396 52.934 43.4416 52.9209 43.5345C52.9078 43.6274 52.8241 43.6944 52.7408 43.7403C52.601 43.6735 52.6068 43.4361 52.7496 43.376L52.7463 43.3862Z" fill="#FFB61D"/>
<path id="Vector_139" d="M55.7278 33.608C55.6885 33.4477 55.8991 33.2627 56.0208 33.3765C56.0133 33.4668 56.0022 33.5652 55.9375 33.6299C55.8727 33.6948 55.7353 33.6902 55.7094 33.6031L55.7278 33.608Z" fill="#FFB61D"/>
<path id="Vector_140" d="M63.3921 45.3826C63.4015 45.557 63.0948 45.6267 63.025 45.4658C63.0476 45.3057 63.3047 45.2452 63.3988 45.3779L63.3921 45.3826Z" fill="#FFB61D"/>
<path id="Vector_141" d="M54.8723 43.406C54.6954 43.4296 54.7416 43.7608 54.9183 43.7372C55.0949 43.7136 55.049 43.3822 54.8723 43.406Z" fill="#FFB61D"/>
<path id="Vector_142" d="M63.0393 43.3737C63.1924 43.4698 63.1945 43.7266 63.0429 43.8252C62.8903 43.7272 62.8897 43.4702 63.0419 43.3716L63.0393 43.3737Z" fill="#FFB61D"/>
<path id="Vector_143" d="M55.9549 36.4171C55.8326 36.4984 55.6449 36.4601 55.5662 36.3375C55.6467 36.2736 55.7392 36.2075 55.8424 36.2155C55.9457 36.2237 56.0348 36.3537 55.9659 36.4298L55.9549 36.4171Z" fill="#FFB61D"/>
<path id="Vector_144" d="M59.1713 45.6514C59.108 45.7694 58.8774 45.6641 58.929 45.5406C58.9418 45.445 59.0644 45.3816 59.1522 45.4252C59.2398 45.469 59.26 45.6036 59.1889 45.6702L59.1713 45.6514Z" fill="#FFB61D"/>
<path id="Vector_145" d="M49.7216 37.5849C49.599 37.629 49.4949 37.433 49.5853 37.3406C49.6757 37.2483 49.8519 37.2951 49.915 37.4071C49.8511 37.4701 49.7873 37.5331 49.7233 37.5959L49.7216 37.5849Z" fill="#FFB61D"/>
<path id="Vector_146" d="M66.45 32.5051C66.3867 32.623 66.1561 32.5175 66.2076 32.394C66.2205 32.2984 66.3431 32.235 66.4307 32.2788C66.5185 32.3226 66.5387 32.457 66.4676 32.5238L66.45 32.5051Z" fill="#FFB61D"/>
<path id="Vector_147" d="M62.0632 34.2948C62.1102 34.4147 62.0624 34.5636 61.9539 34.6355C61.8827 34.5493 61.8069 34.4463 61.8312 34.338C61.8552 34.2297 62.0458 34.1866 62.0724 34.2942L62.0632 34.2948Z" fill="#FFB61D"/>
<path id="Vector_148" d="M59.1704 40.4829C59.2604 40.592 59.159 40.7879 59.0161 40.7808C58.9519 40.7445 58.9096 40.6733 58.9092 40.6004C58.9463 40.4983 59.0689 40.4344 59.176 40.4612L59.1704 40.4829Z" fill="#FFB61D"/>
<path id="Vector_149" d="M59.9589 33.4935C59.9484 33.659 60.2706 33.6788 60.2811 33.5135C60.2916 33.3479 59.9694 33.3281 59.9589 33.4935Z" fill="#FFB61D"/>
<path id="Vector_150" d="M65.2867 36.2285C65.3483 36.273 65.3906 36.3427 65.4009 36.4173C65.3459 36.5034 65.2343 36.5508 65.1328 36.531C65.0409 36.4238 65.1448 36.2264 65.2871 36.238L65.2867 36.2285Z" fill="#FFB61D"/>
<path id="Vector_151" d="M61.1443 46.5242C61.0979 46.5845 61.0271 46.6262 60.9511 46.6375C60.8897 46.5925 60.8474 46.5229 60.8358 46.4486C60.8944 46.3799 60.9786 46.318 61.0687 46.3314C61.1591 46.3451 61.2186 46.4755 61.1449 46.5284L61.1443 46.5242Z" fill="#FFB61D"/>
<path id="Vector_152" d="M68.422 36.3399C68.3436 36.459 68.1613 36.4967 68.0407 36.4189C67.9855 36.3378 68.0727 36.2213 68.1716 36.214C68.2706 36.2066 68.3599 36.2713 68.4275 36.3427L68.422 36.3399Z" fill="#FFB61D"/>
<path id="Vector_153" d="M53.6548 35.4911C53.5794 35.402 53.6662 35.2418 53.7842 35.2467C53.9021 35.2515 53.9779 35.4064 53.9141 35.5037C53.8501 35.601 53.6844 35.6036 53.6112 35.513L53.6548 35.4911Z" fill="#FFB61D"/>
<path id="Vector_154" d="M57.1133 44.5492C57.136 44.6096 57.1229 44.6815 57.0802 44.7304C56.9613 44.7847 56.7936 44.6745 56.8233 44.5492C56.8529 44.4238 57.0886 44.4278 57.0953 44.5563L57.1133 44.5492Z" fill="#FFB61D"/>
<path id="Vector_155" d="M67.2258 41.6121C67.1393 41.6047 67.1331 41.4657 67.2046 41.4172C67.2761 41.369 67.372 41.385 67.4568 41.4029C67.4972 41.4558 67.5116 41.5268 67.4946 41.5908C67.4109 41.6294 67.3141 41.6401 67.2237 41.6207L67.2258 41.6121Z" fill="#FFB61D"/>
<path id="Vector_156" d="M59.0152 35.24C59.0929 35.24 59.1704 35.24 59.2479 35.2397C59.2843 35.296 59.2981 35.3659 59.2854 35.4315C59.1983 35.4656 59.0976 35.4993 59.0141 35.4574C58.9304 35.4154 58.9248 35.261 59.0182 35.2507L59.0152 35.24Z" fill="#FFB61D"/>
<path id="Vector_157" d="M63.4043 35.3255C63.344 35.1705 63.0426 35.2836 63.1029 35.4386C63.1632 35.5935 63.4646 35.4804 63.4043 35.3255Z" fill="#FFB61D"/>
<path id="Vector_158" d="M68.1179 35.5834C68.0984 35.4976 68.1171 35.3953 68.1911 35.3458C68.2652 35.2962 68.3929 35.3409 68.3931 35.429C68.3792 35.5054 68.3609 35.5893 68.2976 35.6361C68.2343 35.6826 68.1156 35.6502 68.1188 35.5726L68.1179 35.5834Z" fill="#FFB61D"/>
<path id="Vector_159" d="M49.739 35.6558C49.6171 35.6963 49.4797 35.5539 49.5274 35.4367C49.5753 35.3196 49.7747 35.3093 49.8346 35.4209C49.7972 35.4871 49.7599 35.553 49.7223 35.6192L49.739 35.6558Z" fill="#FFB61D"/>
<path id="Vector_160" d="M54.563 45.6144C54.5501 45.4745 54.7521 45.3717 54.8611 45.4625C54.9084 45.5394 54.8759 45.6523 54.7948 45.6941C54.7137 45.7356 54.6007 45.6972 54.5632 45.6153L54.563 45.6144Z" fill="#FFB61D"/>
<path id="Vector_161" d="M64.3357 40.6911C64.4594 40.5796 64.2428 40.3479 64.1189 40.4591C63.9953 40.5706 64.2121 40.8025 64.3357 40.6911Z" fill="#FFB61D"/>
<path id="Vector_162" d="M58.163 41.8429C58.0565 41.8762 57.9483 41.7414 57.9936 41.6411C58.0387 41.5406 58.1911 41.5162 58.2785 41.5846C58.3047 41.6841 58.2536 41.798 58.1613 41.8465L58.163 41.8429Z" fill="#FFB61D"/>
<path id="Vector_163" d="M65.0813 32.7071C64.9649 32.5954 65.1384 32.3643 65.2816 32.4404C65.3932 32.5484 65.227 32.7711 65.0884 32.6993L65.0813 32.7071Z" fill="#FFB61D"/>
<path id="Vector_164" d="M58.2407 36.3765C58.1108 36.3909 57.9446 36.3822 57.8953 36.2632C57.9734 36.164 58.1174 36.1199 58.2392 36.1583C58.2956 36.2192 58.2978 36.3213 58.2441 36.3845L58.2407 36.3765Z" fill="#FFB61D"/>
<path id="Vector_165" d="M64.0818 34.278C64.2132 34.2247 64.3712 34.3869 64.3107 34.5133C64.2488 34.5776 64.1316 34.5782 64.0689 34.5148C64.0063 34.4516 64.0103 34.3366 64.0775 34.2778L64.0818 34.278Z" fill="#FFB61D"/>
<path id="Vector_166" d="M63.0033 33.3028C63.0497 33.2425 63.1205 33.2008 63.1965 33.1895C63.2579 33.2345 63.3004 33.3041 63.3118 33.3784C63.2658 33.4387 63.195 33.4802 63.1192 33.4915C63.0576 33.4465 63.0153 33.3767 63.0046 33.3022L63.0033 33.3028Z" fill="#FFB61D"/>
<path id="Vector_167" d="M58.2291 38.5596C58.146 38.6987 57.8998 38.6909 57.8259 38.5472C57.8963 38.4031 58.1439 38.3962 58.2224 38.5363L58.2291 38.5596Z" fill="#FFB61D"/>
<path id="Vector_168" d="M52.741 42.4534C52.8243 42.4427 52.8869 42.5461 52.8599 42.6238C52.8326 42.7018 52.7483 42.7475 52.6656 42.762C52.6044 42.7167 52.5622 42.6474 52.5508 42.5731C52.5965 42.5126 52.6676 42.4711 52.7435 42.4606L52.741 42.4534Z" fill="#FFB61D"/>
<path id="Vector_169" d="M61.2808 44.5829C61.2842 44.6423 61.2879 44.7015 61.2913 44.7609C61.2164 44.866 61.011 44.8094 61.0028 44.6815C60.9947 44.5534 61.1915 44.4723 61.2791 44.5673L61.2808 44.5829Z" fill="#FFB61D"/>
<path id="Vector_170" d="M65.2869 41.3955C65.3483 41.441 65.3908 41.5105 65.4024 41.5851C65.3565 41.6454 65.2857 41.6871 65.2099 41.6982C65.1485 41.6532 65.1062 41.5836 65.0946 41.5093C65.1405 41.4488 65.2116 41.4073 65.2876 41.3968L65.2869 41.3955Z" fill="#FFB61D"/>
<path id="Vector_171" d="M55.7321 45.6887C55.7038 45.6047 55.7276 45.4995 55.8042 45.4526C55.8809 45.4058 56.0039 45.4473 56.0168 45.5351C55.9841 45.6007 55.9513 45.6662 55.9184 45.7319C55.853 45.7245 55.7875 45.7171 55.722 45.7098L55.7321 45.6887Z" fill="#FFB61D"/>
<path id="Vector_172" d="M61.3064 34.4426C61.3154 34.5444 61.2046 34.6377 61.1035 34.6137C61.0022 34.5899 60.947 34.4572 61.0024 34.3706C61.0874 34.2905 61.2544 34.3358 61.2856 34.4475L61.3064 34.4426Z" fill="#FFB61D"/>
<path id="Vector_173" d="M52.5816 40.5551C52.6589 40.4449 52.8781 40.5404 52.8468 40.6704C52.8143 40.7361 52.7418 40.7805 52.6675 40.7803C52.5821 40.7483 52.5398 40.6358 52.5838 40.557L52.5816 40.5551Z" fill="#FFB61D"/>
<path id="Vector_174" d="M68.2364 34.175C68.3313 34.3195 68.1449 34.5388 67.9829 34.4733C67.9605 34.3307 68.0831 34.1826 68.2302 34.1748L68.2364 34.175Z" fill="#FFB61D"/>
<path id="Vector_175" d="M51.4626 37.4068C51.4579 37.2646 51.6573 37.1644 51.7722 37.2509C51.8319 37.4085 51.5571 37.549 51.4598 37.4108L51.4626 37.4068Z" fill="#FFB61D"/>
<path id="Vector_176" d="M70.0869 37.2908C70.1395 37.2232 70.2374 37.1931 70.32 37.2194C70.3582 37.2719 70.372 37.3408 70.3565 37.4033C70.2928 37.4398 70.229 37.4764 70.1652 37.5129C70.0807 37.4794 70.0399 37.3675 70.0835 37.289L70.0869 37.2908Z" fill="#FFB61D"/>
<path id="Vector_177" d="M62.1557 33.296C62.268 33.3718 62.1707 33.5869 62.0383 33.5562C61.9713 33.5243 61.926 33.4531 61.926 33.3803C61.9589 33.2962 62.0735 33.2549 62.1538 33.2981L62.1557 33.296Z" fill="#FFB61D"/>
<path id="Vector_178" d="M52.7865 34.3599C52.8988 34.4358 52.8017 34.6508 52.6691 34.6201C52.6023 34.5883 52.5568 34.5171 52.557 34.4442C52.5896 34.3603 52.7043 34.3188 52.7848 34.362L52.7865 34.3599Z" fill="#FFB61D"/>
<path id="Vector_179" d="M62.3048 37.2535C62.2215 37.3715 62.0388 37.4079 61.9152 37.331C61.9128 37.1518 62.229 37.0907 62.296 37.2575L62.3048 37.2535Z" fill="#FFB61D"/>
<path id="Vector_180" d="M55.6473 41.6617C55.6937 41.6014 55.7645 41.5597 55.8405 41.5483C55.9019 41.5934 55.9442 41.6629 55.9558 41.7373C55.9097 41.7976 55.839 41.8391 55.763 41.8504C55.7014 41.8054 55.6594 41.7356 55.6486 41.661L55.6473 41.6617Z" fill="#FFB61D"/>
<path id="Vector_181" d="M57.1953 36.4937C57.149 36.5542 57.0781 36.5957 57.0021 36.6073C56.9407 36.562 56.8984 36.4927 56.8868 36.4181C56.933 36.3578 57.0036 36.3163 57.0796 36.3052C57.1412 36.35 57.1833 36.42 57.194 36.4946L57.1953 36.4937Z" fill="#FFB61D"/>
<path id="Vector_182" d="M68.122 39.6148C68.1829 39.4757 68.4227 39.4703 68.4903 39.6063C68.4216 39.7519 68.1724 39.7603 68.0936 39.6198L68.122 39.6148Z" fill="#FFB61D"/>
<path id="Vector_183" d="M62.1485 46.5203C62.0843 46.5587 62.0201 46.5972 61.956 46.6356C61.895 46.592 61.8536 46.5229 61.8441 46.4493C61.8997 46.3634 62.0113 46.316 62.1131 46.3354C62.1502 46.3903 62.1633 46.4601 62.1487 46.5243L62.1485 46.5203Z" fill="#FFB61D"/>
<path id="Vector_184" d="M61.9964 44.4735C61.9606 44.3888 62.1014 44.3471 62.1939 44.3603C62.2341 44.4419 62.2457 44.5367 62.2259 44.6251C62.1705 44.6616 62.0999 44.6751 62.0344 44.662C61.9975 44.6072 61.9844 44.5375 61.999 44.4735H61.9964Z" fill="#FFB61D"/>
<path id="Vector_185" d="M55.6473 35.5064C55.6937 35.4462 55.7645 35.4047 55.8405 35.3931C55.9019 35.4384 55.9442 35.5077 55.9558 35.5822C55.9097 35.6425 55.839 35.684 55.763 35.6952C55.7014 35.6503 55.6594 35.5803 55.6486 35.5058L55.6473 35.5064Z" fill="#FFB61D"/>
<path id="Vector_186" d="M66.2156 37.2923C66.3008 37.2552 66.3448 37.394 66.3309 37.4846C66.2478 37.5242 66.1516 37.5362 66.0612 37.5183C66.0245 37.4633 66.0108 37.394 66.0239 37.3294C66.0797 37.2931 66.1508 37.2803 66.216 37.2946L66.2156 37.2923Z" fill="#FFB61D"/>
<path id="Vector_187" d="M52.8554 36.4188C52.8749 36.482 52.8627 36.5538 52.8232 36.6076C52.7562 36.6231 52.6828 36.6097 52.6261 36.5713C52.6267 36.4951 52.6274 36.4188 52.628 36.3425C52.6933 36.2602 52.8577 36.3135 52.8601 36.418L52.8554 36.4188Z" fill="#FFB61D"/>
<path id="Vector_188" d="M56.0022 39.7281C55.9249 39.8383 55.7057 39.7431 55.7371 39.6129C55.7695 39.5474 55.842 39.5029 55.9163 39.5029C56.0017 39.535 56.044 39.6474 56 39.7264L56.0022 39.7281Z" fill="#FFB61D"/>
<path id="Vector_189" d="M53.9401 36.2002C54.0155 36.2164 54.0434 36.3295 53.9839 36.3778C53.8551 36.3906 53.6909 36.3839 53.6417 36.2666C53.6956 36.1619 53.8472 36.1199 53.9491 36.1814L53.9401 36.2002Z" fill="#FFB61D"/>
<path id="Vector_190" d="M58.1632 45.499C58.2246 45.5443 58.2671 45.6138 58.2787 45.6886C58.2327 45.7489 58.1619 45.7904 58.0861 45.8018C58.0247 45.7565 57.9824 45.6871 57.9708 45.6126C58.0168 45.5521 58.0878 45.5106 58.1638 45.5001L58.1632 45.499Z" fill="#FFB61D"/>
<path id="Vector_191" d="M60.9113 39.4557C61.0097 39.3856 61.1694 39.4279 61.2183 39.537C61.14 39.6363 60.9961 39.6801 60.8744 39.6415C60.8225 39.5901 60.8465 39.4878 60.9163 39.4637L60.9113 39.4557Z" fill="#FFB61D"/>
<path id="Vector_192" d="M54.9181 38.7403C54.8408 38.8505 54.6216 38.7553 54.6529 38.6251C54.6854 38.5596 54.7579 38.5149 54.8322 38.5151C54.9178 38.5472 54.9599 38.6597 54.9159 38.7384L54.9181 38.7403Z" fill="#FFB61D"/>
<path id="Vector_193" d="M61.1097 41.4691C61.0255 41.3423 60.7787 41.5001 60.8628 41.6269C60.947 41.7537 61.1938 41.5959 61.1097 41.4691Z" fill="#FFB61D"/>
<path id="Vector_194" d="M52.8356 39.5727C52.8187 39.7315 52.5368 39.7606 52.4866 39.6085C52.5422 39.4861 52.7418 39.4635 52.8242 39.5703L52.8356 39.5727Z" fill="#FFB61D"/>
<path id="Vector_195" d="M60.0267 45.7151C59.8595 45.653 59.9196 45.3475 60.0987 45.3511C60.1811 45.4684 60.1433 45.65 60.0207 45.7263L60.0267 45.7151Z" fill="#FFB61D"/>
<path id="Vector_196" d="M51.7207 36.4035C51.6616 36.3611 51.6026 36.3188 51.5433 36.2762C51.6049 36.1302 51.8574 36.1247 51.9252 36.268C51.8817 36.3285 51.811 36.3695 51.7361 36.3784L51.7207 36.4035Z" fill="#FFB61D"/>
<path id="Vector_197" d="M63.0797 42.4196C63.1933 42.4956 63.1714 42.6975 63.0441 42.7484C62.8904 42.6983 62.9181 42.4247 63.0789 42.4053L63.0797 42.4196Z" fill="#FFB61D"/>
<path id="Vector_198" d="M68.1485 33.5709C68.2326 33.6977 68.4795 33.5399 68.3953 33.4131C68.3112 33.286 68.0643 33.4438 68.1485 33.5709Z" fill="#FFB61D"/>
<path id="Vector_199" d="M60.9206 45.3897C60.9826 45.2503 61.2237 45.2461 61.2907 45.3832C61.2254 45.5223 60.982 45.521 60.9185 45.3811L60.9206 45.3897Z" fill="#FFB61D"/>
<path id="Vector_200" d="M56.9396 33.3628C56.9827 33.3048 57.0261 33.2469 57.0692 33.189C57.218 33.2492 57.2236 33.4972 57.0776 33.5637C57.0162 33.5208 56.9744 33.4517 56.9653 33.3781L56.9396 33.3628Z" fill="#FFB61D"/>
<path id="Vector_201" d="M66.2211 36.3706C66.1224 36.355 66.1346 36.1875 66.2291 36.1544C66.3233 36.1212 66.4261 36.1858 66.4843 36.2661C66.4298 36.352 66.3177 36.399 66.2168 36.3784L66.2211 36.3706Z" fill="#FFB61D"/>
<path id="Vector_202" d="M65.1021 39.5379C65.1513 39.4305 65.3062 39.3867 65.4061 39.4522C65.4361 39.5352 65.3814 39.6378 65.2947 39.6605C65.2079 39.6835 65.1081 39.6218 65.0918 39.535L65.1021 39.5379Z" fill="#FFB61D"/>
<path id="Vector_203" d="M55.9132 38.3652C56.012 38.381 55.9997 38.5482 55.9055 38.5815C55.8111 38.6146 55.7082 38.5499 55.6503 38.4699C55.7048 38.3837 55.8166 38.3367 55.9177 38.3574L55.9132 38.3652Z" fill="#FFB61D"/>
<path id="Vector_204" d="M64.122 39.726C64.2061 39.8528 64.4532 39.6951 64.3688 39.5682C64.2847 39.4414 64.0378 39.5992 64.122 39.726Z" fill="#FFB61D"/>
<path id="Vector_205" d="M57.2756 43.6411C57.4048 43.5583 57.244 43.316 57.1148 43.3988C56.9855 43.4814 57.1463 43.7237 57.2756 43.6411Z" fill="#FFB61D"/>
<path id="Vector_206" d="M67.2071 37.5431C67.1481 37.5008 67.0888 37.4582 67.0298 37.4159C67.0912 37.2699 67.3438 37.2644 67.4117 37.4076C67.3679 37.4679 67.2975 37.509 67.2226 37.5178L67.2071 37.5431Z" fill="#FFB61D"/>
<path id="Vector_207" d="M66.4019 39.5287C66.3399 39.6679 66.0988 39.6721 66.0319 39.5352C66.0969 39.3961 66.3403 39.3974 66.4041 39.5373L66.4019 39.5287Z" fill="#FFB61D"/>
<path id="Vector_208" d="M69.4216 37.4012C69.3596 37.5405 69.1185 37.5447 69.0515 37.4077C69.1168 37.2687 69.3602 37.27 69.4237 37.4099L69.4216 37.4012Z" fill="#FFB61D"/>
<path id="Vector_209" d="M54.5321 42.6348C54.5744 42.5478 54.6167 42.4608 54.659 42.374C54.7433 42.4307 54.8198 42.5255 54.7955 42.623C54.7715 42.7206 54.5963 42.7484 54.5759 42.65L54.5321 42.6348Z" fill="#FFB61D"/>
<path id="Vector_210" d="M70.3833 36.4106C70.2947 36.3689 70.2062 36.3274 70.1176 36.2859C70.1753 36.2031 70.2719 36.1283 70.3713 36.1519C70.4707 36.1755 70.499 36.3474 70.3988 36.3674L70.3833 36.4106Z" fill="#FFB61D"/>
<path id="Vector_211" d="M65.1341 43.3747C65.2021 43.3566 65.2781 43.3697 65.3357 43.4095C65.3052 43.5171 65.2309 43.6125 65.1328 43.6696C65.0126 43.6258 65.0145 43.4211 65.1356 43.3796L65.1341 43.3747Z" fill="#FFB61D"/>
<path id="Vector_212" d="M49.5643 38.5596C49.5158 38.3869 49.855 38.2999 49.8988 38.4737C49.8498 38.5777 49.6976 38.6178 49.6021 38.5518L49.5643 38.5596Z" fill="#FFB61D"/>
<path id="Vector_213" d="M49.5733 36.4463C49.4743 36.4305 49.4868 36.2632 49.581 36.2301C49.6753 36.1968 49.7783 36.2615 49.8363 36.3418C49.7817 36.4277 49.6699 36.4747 49.5688 36.4541L49.5733 36.4463Z" fill="#FFB61D"/>
<path id="Vector_214" d="M64.3259 42.4209C64.3216 42.4972 64.2731 42.5697 64.2035 42.604C64.0608 42.5398 64.0623 42.2994 64.2057 42.2368C64.2669 42.2798 64.3085 42.3489 64.3175 42.4222L64.3259 42.4209Z" fill="#FFB61D"/>
<path id="Vector_215" d="M51.6607 41.8635C51.5437 41.8649 51.5259 41.6985 51.5493 41.586C51.6084 41.5285 51.7148 41.5279 51.7743 41.5847C51.8003 41.6844 51.7492 41.7982 51.6569 41.8468L51.6607 41.8635Z" fill="#FFB61D"/>
<path id="Vector_216" d="M65.3932 42.5757C65.3552 42.4272 65.0661 42.4982 65.1039 42.6467C65.1419 42.7952 65.431 42.7242 65.3932 42.5757Z" fill="#FFB61D"/>
<path id="Vector_217" d="M65.2431 34.5851C65.1596 34.6312 65.069 34.4983 65.1179 34.4174C65.1671 34.3367 65.2787 34.3188 65.3742 34.327C65.4131 34.426 65.3478 34.5514 65.2433 34.5783L65.2431 34.5851Z" fill="#FFB61D"/>
<path id="Vector_218" d="M62.1077 36.2376C62.2067 36.2534 62.1942 36.4207 62.1 36.454C62.0057 36.487 61.9027 36.4224 61.8447 36.3423C61.8993 36.2561 62.0111 36.2092 62.1122 36.23L62.1077 36.2376Z" fill="#FFB61D"/>
<path id="Vector_219" d="M50.8117 37.3164C50.8603 37.4891 50.5211 37.5761 50.4773 37.4023C50.5262 37.2983 50.6784 37.2582 50.774 37.3242L50.8117 37.3164Z" fill="#FFB61D"/>
<path id="Vector_220" d="M55.9927 40.4834C56.071 40.5687 56.0315 40.7271 55.922 40.7674C55.7494 40.7288 55.8336 40.4038 56.0043 40.451L55.9927 40.4834Z" fill="#FFB61D"/>
<path id="Vector_221" d="M59.1073 37.2139C59.118 37.2785 59.1285 37.343 59.1393 37.4077C59.0412 37.4797 58.8791 37.4386 58.8289 37.3289C58.881 37.2425 58.9931 37.1957 59.0927 37.2187L59.1073 37.2139Z" fill="#FFB61D"/>
<path id="Vector_222" d="M53.7138 44.7007C53.5543 44.738 53.5318 44.452 53.6705 44.3662C53.7961 44.4231 53.8216 44.6188 53.7145 44.7048L53.7138 44.7007Z" fill="#FFB61D"/>
<path id="Vector_223" d="M57.2296 46.496C57.3284 46.5118 57.3162 46.6791 57.2219 46.7124C57.1277 46.7455 57.0246 46.6808 56.9667 46.6007C57.0212 46.5146 57.133 46.4676 57.2341 46.4882L57.2296 46.496Z" fill="#FFB61D"/>
<path id="Vector_224" d="M65.2447 37.2548C65.2635 37.318 65.2517 37.3892 65.2131 37.4432C65.1116 37.4661 64.9943 37.4215 64.946 37.3309C65.0004 37.226 65.1519 37.1838 65.2541 37.2454L65.2447 37.2548Z" fill="#FFB61D"/>
<path id="Vector_225" d="M64.9394 33.3794C64.9825 33.3179 65.0546 33.2768 65.1304 33.2705C65.2489 33.3183 65.2498 33.5178 65.1317 33.5665C65.0673 33.5039 65.0031 33.4411 64.9387 33.3784L64.9394 33.3794Z" fill="#FFB61D"/>
<path id="Vector_226" d="M52.7042 37.4031C52.6174 37.4799 52.4558 37.4412 52.4148 37.334C52.4543 37.1644 52.7853 37.2472 52.7374 37.4144L52.7042 37.4031Z" fill="#FFB61D"/>
<path id="Vector_227" d="M61.2651 40.584C61.3134 40.7568 60.9744 40.8438 60.9304 40.67C60.9796 40.5659 61.1318 40.5259 61.2271 40.5916L61.2651 40.584Z" fill="#FFB61D"/>
<path id="Vector_228" d="M62.9213 34.282C63.0052 34.2429 63.1181 34.2839 63.1557 34.3674C63.0921 34.4293 63.0288 34.4912 62.9655 34.5532C62.8614 34.5148 62.835 34.3547 62.9217 34.2865L62.9213 34.282Z" fill="#FFB61D"/>
<path id="Vector_229" d="M64.0043 33.5392C63.9274 33.4866 63.9262 33.3568 64.0024 33.3029C64.0784 33.2489 64.2035 33.2906 64.2303 33.3787C64.1857 33.4613 64.1024 33.5226 64.0092 33.5413L64.0043 33.5392Z" fill="#FFB61D"/>
<path id="Vector_230" d="M64.2539 43.5613C64.2458 43.6668 64.0816 43.7174 64.0135 43.6352C63.9785 43.5354 64.0436 43.4229 64.1354 43.3677C64.1749 43.4296 64.2144 43.4918 64.2539 43.5539V43.5613Z" fill="#FFB61D"/>
<path id="Vector_231" d="M71.3259 35.4642C71.2615 35.483 71.189 35.4712 71.134 35.4335C71.1106 35.3338 71.1561 35.2186 71.2484 35.1714C71.3553 35.2247 71.3983 35.3732 71.3356 35.4737L71.3259 35.4642Z" fill="#FFB61D"/>
<path id="Vector_232" d="M59.9435 35.469C59.8709 35.3748 59.9128 35.2179 60.0233 35.1709C60.1107 35.2236 60.1584 35.3327 60.1369 35.4309C60.0811 35.4669 60.0102 35.4797 59.945 35.4656L59.9435 35.469Z" fill="#FFB61D"/>
<path id="Vector_233" d="M65.0701 35.3385C65.1136 35.2797 65.1574 35.2212 65.201 35.1626C65.2961 35.2104 65.3494 35.3263 65.3232 35.4278C65.2603 35.5121 65.0935 35.458 65.0939 35.3537L65.0701 35.3385Z" fill="#FFB61D"/>
<path id="Vector_234" d="M66.293 44.6638C66.2202 44.5694 66.2621 44.4127 66.3726 44.3657C66.46 44.4182 66.5077 44.5273 66.4862 44.6257C66.4304 44.6617 66.3595 44.6746 66.2943 44.6604L66.293 44.6638Z" fill="#FFB61D"/>
<path id="Vector_235" d="M54.6785 37.4469C54.629 37.3801 54.6569 37.2718 54.7329 37.2362C54.8088 37.2006 54.9121 37.2472 54.934 37.327C54.9029 37.4307 54.7771 37.4964 54.6719 37.4638L54.6785 37.4469Z" fill="#FFB61D"/>
<path id="Vector_236" d="M53.7645 45.2407C53.8525 45.2818 53.9405 45.3231 54.0285 45.3644C53.9792 45.4613 53.8598 45.5186 53.7514 45.4975C53.6962 45.4343 53.6934 45.3328 53.7452 45.2666L53.7645 45.2407Z" fill="#FFB61D"/>
<path id="Vector_237" d="M62.2052 45.4967C62.2151 45.5605 62.2249 45.6243 62.2348 45.6882C62.1794 45.7265 62.106 45.7383 62.0412 45.7193C61.9281 45.6323 62.0727 45.4145 62.1994 45.4813L62.2052 45.4967Z" fill="#FFB61D"/>
<path id="Vector_238" d="M65.3326 44.6248C65.3275 44.7013 65.2792 44.7735 65.2096 44.8087C65.1186 44.7613 65.0692 44.6478 65.0974 44.5504C65.1607 44.467 65.3264 44.5218 65.3255 44.6256L65.3326 44.6248Z" fill="#FFB61D"/>
<path id="Vector_239" d="M63.1967 37.4439C63.1458 37.4911 63.0947 37.5381 63.0438 37.5851C62.9376 37.5636 62.8966 37.4045 62.9797 37.3363C63.063 37.2678 63.2154 37.3352 63.2182 37.4416L63.1967 37.4439Z" fill="#FFB61D"/>
<path id="Vector_240" d="M70.3529 35.3562C70.3979 35.4721 70.2938 35.6168 70.1676 35.6139C70.0594 35.5014 70.2215 35.281 70.3645 35.3463L70.3529 35.3562Z" fill="#FFB61D"/>
<path id="Vector_241" d="M70.3212 38.6598C70.2347 38.6954 70.1918 38.5563 70.2055 38.4651C70.3032 38.3966 70.461 38.4398 70.508 38.5481C70.4644 38.6082 70.3942 38.649 70.3197 38.6577L70.3212 38.6598Z" fill="#FFB61D"/>
<path id="Vector_242" d="M51.7732 35.4298C51.7925 35.5427 51.6437 35.6432 51.543 35.5853C51.5394 35.5027 51.5405 35.4081 51.6036 35.3533C51.6665 35.2983 51.8006 35.3533 51.7697 35.4302L51.7732 35.4298Z" fill="#FFB61D"/>
<path id="Vector_243" d="M64.0493 45.6502C63.9869 45.6076 63.945 45.5371 63.9384 45.4627C63.9871 45.3464 64.1904 45.3456 64.2402 45.4614C64.1762 45.5244 64.1122 45.5876 64.0483 45.6508L64.0493 45.6502Z" fill="#FFB61D"/>
<path id="Vector_244" d="M57.0023 42.6869C56.9409 42.6416 56.8986 42.5721 56.8868 42.4973C56.9332 42.4371 57.0038 42.3956 57.0798 42.3838C57.1547 42.4767 57.1103 42.636 56.9978 42.6785L57.0023 42.6869Z" fill="#FFB61D"/>
<path id="Vector_245" d="M64.0439 38.7399C63.9834 38.6437 64.0819 38.497 64.1959 38.5135C64.3103 38.6003 64.1674 38.8198 64.0392 38.7545L64.0439 38.7399Z" fill="#FFB61D"/>
<path id="Vector_246" d="M51.8789 38.4532C51.9525 38.5806 51.7224 38.7308 51.6311 38.6152C51.5517 38.508 51.7634 38.3723 51.8529 38.4715L51.8789 38.4532Z" fill="#FFB61D"/>
<path id="Vector_247" d="M67.2239 32.4336C67.2857 32.4103 67.3604 32.4244 67.4089 32.4684C67.4611 32.563 67.3533 32.6957 67.2477 32.6671C67.1421 32.6384 67.1195 32.4701 67.2138 32.4155L67.2239 32.4336Z" fill="#FFB61D"/>
<path id="Vector_248" d="M66.3757 42.379C66.4362 42.4753 66.3377 42.6219 66.2237 42.6055C66.1093 42.5189 66.2523 42.2992 66.3804 42.3645L66.3757 42.379Z" fill="#FFB61D"/>
<path id="Vector_249" d="M63.0791 38.7689C62.9776 38.8152 62.914 38.6545 62.9271 38.5454C62.9816 38.4815 63.0991 38.4876 63.1465 38.5567C63.1939 38.6258 63.156 38.735 63.0755 38.7609L63.0791 38.7689Z" fill="#FFB61D"/>
<path id="Vector_250" d="M55.9987 37.3653C56.0462 37.4346 56.0144 37.5427 55.9369 37.5766C55.8592 37.6107 55.756 37.5614 55.7354 37.4806C55.7847 37.3933 55.8976 37.3461 55.996 37.3716L55.9987 37.3653Z" fill="#FFB61D"/>
<path id="Vector_251" d="M57.1205 37.4962C57.0555 37.5065 56.9902 37.5167 56.9252 37.5268C56.8602 37.4326 56.9625 37.282 57.0761 37.3045C57.1523 37.3209 57.18 37.4358 57.1195 37.4842L57.1205 37.4962Z" fill="#FFB61D"/>
<path id="Vector_252" d="M54.7594 34.5588C54.6203 34.5931 54.6388 34.3443 54.7538 34.2603C54.8756 34.3003 54.8751 34.5076 54.7532 34.5472L54.7594 34.5588Z" fill="#FFB61D"/>
<path id="Vector_253" d="M53.7544 42.455C53.8149 42.5515 53.7164 42.6981 53.6022 42.6815C53.488 42.5949 53.6307 42.3754 53.7589 42.4407L53.7544 42.455Z" fill="#FFB61D"/>
<path id="Vector_254" d="M52.5234 38.6818C52.5657 38.6294 52.608 38.5771 52.6501 38.5249C52.7471 38.5287 52.8126 38.6555 52.7583 38.7345C52.704 38.8135 52.5597 38.8015 52.5198 38.7147L52.5234 38.6818Z" fill="#FFB61D"/>
<path id="Vector_255" d="M64.1184 36.3079C64.0755 36.2274 64.1189 36.1149 64.2052 36.082C64.267 36.1225 64.3084 36.192 64.314 36.2649C64.288 36.3376 64.1773 36.3622 64.1219 36.3079H64.1184Z" fill="#FFB61D"/>
<path id="Vector_256" d="M53.5878 38.6638C53.5449 38.5833 53.5881 38.4706 53.6743 38.438C53.7364 38.4784 53.7778 38.548 53.7832 38.6208C53.7574 38.6933 53.6464 38.7182 53.5913 38.6638H53.5878Z" fill="#FFB61D"/>
<path id="Vector_257" d="M71.3427 34.3267C71.3528 34.3934 71.3631 34.46 71.3732 34.5266C71.3058 34.5396 71.2381 34.5527 71.1707 34.5658C71.107 34.4668 71.207 34.3138 71.3253 34.3294L71.3427 34.3267Z" fill="#FFB61D"/>
<path id="Vector_258" d="M54.8411 39.4922C54.8967 39.5942 54.7949 39.7385 54.6781 39.7237C54.6423 39.6677 54.6288 39.5981 54.641 39.5333C54.697 39.4968 54.7683 39.484 54.8338 39.4983L54.8411 39.4922Z" fill="#FFB61D"/>
<path id="Vector_259" d="M54.6834 36.5216C54.5617 36.486 54.5583 36.2794 54.6787 36.2397C54.7995 36.2789 54.7965 36.486 54.6748 36.522L54.6834 36.5216Z" fill="#FFB61D"/>
<path id="Vector_260" d="M54.8754 44.6235C54.8825 44.697 54.831 44.7718 54.7588 44.7928C54.6642 44.7813 54.6101 44.6523 54.6691 44.5786C54.7284 44.5051 54.8688 44.5268 54.9022 44.6146L54.8754 44.6235Z" fill="#FFB61D"/>
<path id="Vector_261" d="M55.7557 43.679C55.713 43.5985 55.7561 43.4858 55.8424 43.4531C55.9044 43.4936 55.9457 43.5631 55.9512 43.636C55.9255 43.7085 55.8145 43.7333 55.7593 43.6788L55.7557 43.679Z" fill="#FFB61D"/>
<path id="Vector_262" d="M54.7124 33.3038C54.7203 33.1898 54.8577 33.0756 54.9466 33.1494C54.9586 33.2237 54.9591 33.3103 54.903 33.3617C54.847 33.4131 54.7255 33.3748 54.741 33.301L54.7124 33.3038Z" fill="#FFB61D"/>
<path id="Vector_263" d="M65.2476 40.742C65.174 40.7778 65.0841 40.6908 65.1002 40.6118C65.1163 40.5328 65.2038 40.4833 65.2858 40.4824C65.3535 40.5591 65.335 40.6931 65.2487 40.7491L65.2476 40.742Z" fill="#FFB61D"/>
<path id="Vector_264" d="M56.9364 41.4925C56.9791 41.4413 57.0218 41.3901 57.0646 41.339C57.1562 41.3352 57.2266 41.4519 57.1792 41.529C57.1315 41.6061 56.9935 41.5989 56.9544 41.5174L56.9364 41.4925Z" fill="#FFB61D"/>
<path id="Vector_265" d="M63.1958 40.7842C63.1297 40.8007 63.0571 40.7899 62.9991 40.7549C62.9998 40.653 63.0904 40.5449 63.1924 40.5662C63.2941 40.5875 63.2937 40.7762 63.1898 40.7707L63.1958 40.7842Z" fill="#FFB61D"/>
<path id="Vector_266" d="M62.1858 38.3677C62.2734 38.3913 62.3183 38.508 62.2685 38.5826C62.1951 38.5999 62.1141 38.583 62.0544 38.538C62.0952 38.4745 62.136 38.4113 62.177 38.3481L62.1858 38.3677Z" fill="#FFB61D"/>
<path id="Vector_267" d="M54.7138 40.4317C54.84 40.4271 54.7782 40.631 54.6781 40.7068C54.6122 40.6308 54.6326 40.4989 54.7187 40.4456L54.7138 40.4317Z" fill="#FFB61D"/>
<path id="Vector_268" d="M67.1826 40.4453C67.2835 40.4931 67.2571 40.6737 67.1465 40.6918C67.0149 40.6665 67.054 40.4223 67.1869 40.4377L67.1826 40.4453Z" fill="#FFB61D"/>
<path id="Vector_269" d="M59.8943 37.4314C59.8312 37.3977 59.8707 37.2903 59.9407 37.2738C60.0107 37.2574 60.0802 37.297 60.141 37.3349C60.1378 37.439 59.9697 37.4872 59.9098 37.4013L59.8943 37.4314Z" fill="#FFB61D"/>
<path id="Vector_270" d="M57.1571 40.7099C57.1083 40.8089 56.9244 40.7828 56.9061 40.6743C56.9319 40.5454 57.1805 40.5835 57.165 40.7141L57.1571 40.7099Z" fill="#FFB61D"/>
<path id="Vector_271" d="M51.6277 44.4003C51.6562 44.311 51.8134 44.3087 51.8447 44.397C51.8138 44.4857 51.656 44.4833 51.6279 44.394L51.6277 44.4003Z" fill="#FFB61D"/>
<path id="Vector_272" d="M55.809 46.4516C55.8375 46.3623 55.9947 46.36 56.026 46.4482C55.9951 46.5369 55.8375 46.5346 55.8092 46.4453L55.809 46.4516Z" fill="#FFB61D"/>
<path id="Vector_273" d="M71.2759 33.3737C71.2542 33.4586 71.1374 33.5039 71.0627 33.4561C71.0256 33.3878 71.0543 33.2886 71.128 33.261C71.2018 33.2334 71.2967 33.3038 71.2791 33.3792L71.2759 33.3737Z" fill="#FFB61D"/>
<path id="Vector_274" d="M69.2193 43.7014C69.1672 43.6594 69.115 43.6175 69.0628 43.5756C69.059 43.4856 69.1779 43.4165 69.2565 43.4633C69.335 43.5099 69.3277 43.6453 69.2447 43.6837L69.2193 43.7014Z" fill="#FFB61D"/>
<path id="Vector_275" d="M67.1848 44.7037C67.1086 44.6706 67.1367 44.532 67.22 44.5303C67.331 44.5336 67.2721 44.7593 67.1876 44.6889L67.1848 44.7037Z" fill="#FFB61D"/>
</g>
<path id="Vector_8_2" d="M56.122 116.162C51.2482 111.792 47.1225 106.621 43.9697 100.929C42.6398 98.5276 41.4514 95.8301 41.9492 93.1415C42.8803 88.1125 40.956 83.059 39.4402 78.1688C37.9242 73.2786 36.8505 67.7564 39.2887 63.2397C35.4423 66.7206 33.8997 71.995 33.0751 77.0656C31.1635 88.821 32.2394 101.033 36.1788 112.292C31.5532 103.982 31.3713 94.0402 31.8101 84.5815C32.1514 77.2213 32.9901 69.3834 37.7012 63.6469C30.4483 69.4519 28.2415 79.2508 26.6409 88.3004C25.1383 96.7977 23.8007 105.716 26.5868 113.896C23.958 109.14 24.3874 103.385 24.93 98.0004C26.1785 85.6153 28.1005 72.2784 36.9404 63.3545C39.2784 60.9944 42.1321 58.9933 45.4073 58.2825C47.9451 57.7321 50.3902 56.7712 52.6139 55.4505C53.1499 52.3702 50.1963 49.9446 48.1329 47.5642C45.8223 44.8989 44.3806 41.5185 44.068 38.0326C43.8832 35.9689 43.4416 33.1574 41.3327 33.0695C39.5991 32.9971 38.2941 30.9443 38.9898 29.3845C39.6858 27.8248 42.1081 27.3735 43.3381 28.5745C41.5835 22.1193 45.2901 14.6714 51.5564 12.0606C50.5346 10.6266 52.7648 8.90795 54.5354 9.11335C56.3062 9.31875 58.0201 10.3685 59.7586 9.98067C59.1629 8.95093 60.1176 7.58307 61.2937 7.31932C62.4701 7.05556 63.6772 7.55674 64.7322 8.13123C71.5048 11.8185 75.9806 19.2548 76.0018 26.8557C76.177 25.4682 78.2985 24.9932 79.336 25.9511C80.3737 26.9088 80.3243 28.6232 79.5876 29.8198C78.8507 31.0162 77.5949 31.8017 76.3519 32.4845C76.3833 37.5249 74.43 42.5527 70.9872 46.2933C68.482 49.0151 64.9325 51.9023 65.7547 55.48C67.0874 55.1908 68.4355 56.6996 67.9692 57.9585C73.6832 57.4913 79.0155 60.8758 83.0637 64.8608C88.9982 70.7024 93.2634 78.1604 95.2536 86.1746C95.6011 87.5745 97.6306 87.9562 98.8861 87.2092C100.142 86.4623 100.787 85.0498 101.359 83.7228C105.127 74.9852 108.895 66.2474 112.662 57.5098C111.401 49.9049 112.523 50.3286 113.114 46.7723C114.728 42.6391 114.42 38.9044 115.073 34.9702C115.251 33.8989 116.014 32.4853 117.022 32.932C117.532 33.1578 117.712 33.7677 117.821 34.3061C118.432 37.3324 118.628 40.4393 118.4 43.5163C119.704 41.3268 121.008 39.1374 122.313 36.9477C123.026 35.7494 124.603 34.4077 125.593 35.3989C126.137 35.9434 125.994 36.8369 125.77 37.5668C125.056 39.8886 123.892 42.0766 122.36 43.9791C124.426 44.6707 126.82 45.7209 127.181 47.8339C127.331 48.7105 127.078 49.6024 126.779 50.4411C125.736 53.3565 124.09 56.0625 121.968 58.3455C122.455 58.0573 122.773 58.9149 122.677 59.4648C120.35 72.6753 114.68 85.3062 106.318 95.9076C103.851 99.0362 100.503 102.263 96.4892 101.894C93.9767 101.663 91.8537 100.045 89.888 98.4923C87.7713 96.8204 85.6547 95.1484 83.5381 93.4765C88.4651 94.5566 91.209 100.588 96.2211 101.184C100.296 101.668 103.717 98.3187 106.18 95.0959C114.216 84.5805 119.705 72.2025 122.069 59.2644C118.855 59.7936 115.51 59.5354 112.42 58.5193C109.354 67.8474 105.493 76.9236 100.891 85.6222C100.095 87.1257 98.6801 88.8732 97.046 88.3265C96.3146 88.0817 95.8205 87.423 95.4085 86.7815C91.2899 80.3711 90.333 71.8229 84.3259 67.0606C86.747 81.7955 82.93 96.7791 78.6094 111.089C81.917 99.9385 83.9318 88.4188 84.6027 76.8237C84.7566 74.1617 84.8334 71.4412 84.0658 68.8835C83.2981 66.3258 81.5456 63.9191 79.0018 62.9827C77.345 73.5578 67.6405 81.4243 65.1848 91.8487C63.1991 100.278 60.1474 108.465 56.122 116.162ZM66.0975 87.213C69.7896 80.3248 74.6299 74.0191 77.6352 66.8166C78.3185 65.1789 78.882 63.2326 77.9531 61.716C77.6178 61.1684 77.1179 60.74 76.6265 60.3211C75.8492 59.6588 74.997 58.964 73.9711 58.8823C72.6097 58.7736 71.429 59.7728 70.5532 60.8015C68.4292 63.2956 67.0577 66.3102 65.7536 69.2981C62.6339 76.4449 59.7337 83.7186 57.9097 91.2847C56.0859 98.8508 55.3586 106.748 56.6129 114.425C58.2012 107.385 63.5419 101.42 64.2739 94.2448C64.3946 93.0632 64.3864 91.8636 64.6485 90.7041C64.9265 89.4736 65.4995 88.3284 66.0975 87.213ZM73.4065 22.2038C72.9065 21.2579 72.2827 20.3531 71.4296 19.6937C69.5294 18.2253 66.8538 18.2213 64.4764 18.6578C62.9567 18.9367 61.4659 19.3669 60.034 19.9395C59.6603 20.0889 59.2634 20.2515 58.8663 20.1807C58.4691 20.1097 58.1119 19.6897 58.2746 19.3271C58.306 19.2574 58.3545 19.1927 58.3629 19.1169C58.3861 18.9047 58.1113 18.7985 57.896 18.7682C54.624 18.3052 51.14 18.8466 48.3895 20.6461C45.6387 22.4456 43.7346 25.5833 43.8364 28.8259C43.8593 29.5535 44.4168 30.1488 44.9765 30.6268C45.8323 31.3576 46.7754 31.9901 47.7804 32.507C48.2315 32.739 48.8503 32.9229 49.1951 32.5551C49.879 31.8255 51.0153 31.7689 52.0253 31.7901C55.5355 31.8639 59.0648 32.2612 62.5446 31.8024C64.6646 31.5226 66.7293 30.9289 68.8412 30.5948C69.488 30.4924 70.1558 30.4153 70.7934 30.5636C71.4309 30.7117 72.0397 31.128 72.2428 31.7394C73.065 30.8276 73.8045 29.8438 74.4493 28.8037C74.643 28.4915 74.8308 28.1671 74.9025 27.8085C74.966 27.4904 74.9347 27.1618 74.8916 26.8403C74.6754 25.2258 74.1703 23.6491 73.4065 22.2038ZM68.1416 44.8546C69.3804 44.3214 70.0766 43.0286 70.5452 41.7831C71.6621 38.815 72.0213 35.5754 71.5805 32.4411C71.5363 32.1259 71.4771 31.7958 71.2723 31.5494C70.9479 31.1588 70.3681 31.0981 69.8551 31.1187C68.6486 31.167 67.4748 31.4931 66.3004 31.7682C63.8274 32.3476 61.2941 32.7076 58.7519 32.716C56.2394 32.7242 53.7312 32.3899 51.2207 32.4856C50.721 32.5047 50.1927 32.5507 49.7869 32.8378C49.144 33.293 49.0309 34.1749 49.0053 34.9527C48.9074 37.9092 49.2629 40.8798 50.0563 43.7337C50.104 43.9052 50.1577 44.084 50.2848 44.2106C50.4217 44.3471 50.6205 44.4002 50.8079 44.4539C53.8411 45.3257 56.4648 47.8223 59.6178 47.6068C61.9566 47.4471 63.923 45.8009 66.2124 45.3048C66.8594 45.1647 67.5349 45.1157 68.1416 44.8546ZM42.2122 93.6952C42.0239 96.3778 43.5706 98.8481 45.058 101.106C46.5639 103.392 48.0696 105.678 49.5753 107.964C47.3545 100.711 46.307 93.1624 45.5945 85.6214C44.8505 77.7473 44.4812 69.6697 46.6751 62.0606C47.0233 60.8533 47.4404 59.6512 48.114 58.5846C46.0945 58.533 43.9459 58.6849 42.2983 59.8324C41.2273 60.5784 40.4672 61.6854 39.9041 62.8498C38.164 66.448 38.1597 70.6472 38.9289 74.5578C39.6982 78.4684 41.1906 82.2001 42.3599 86.0141C42.6997 87.1224 43.0153 88.2602 42.9741 89.4167C42.9223 90.8659 42.3135 92.2487 42.2122 93.6952ZM52.0216 45.6208C50.9807 45.2286 49.718 44.9084 49.3041 43.8923C49.1097 43.4152 49.1571 42.8815 49.1011 42.3707C49.045 41.8598 48.8267 41.2994 48.3399 41.1107C47.1665 40.6556 46.041 40.082 44.987 39.4017C45.5099 42.4195 46.9025 45.2876 48.9613 47.5872C49.9924 48.7389 51.1879 49.7533 52.1015 50.9968C53.0153 52.2404 53.6366 53.805 53.3002 55.3022C53.1928 55.7792 53.8914 55.9869 54.389 55.9753C57.695 55.8986 61.0007 55.808 64.3059 55.7036C64.866 55.6856 65.1964 55.0437 65.1833 54.4939C65.1702 53.9443 64.9446 53.4128 64.9521 52.8629C64.9628 52.0548 65.4677 51.3413 65.9816 50.7097C67.5036 48.8388 69.2815 47.1831 70.8638 45.3607C72.4461 43.5384 73.8558 41.4968 74.4575 39.1768C73.4104 40.9099 71.2012 41.8036 70.3821 43.6513C69.9171 44.7 68.7927 45.317 67.6792 45.6543C66.5655 45.9914 65.3853 46.1283 64.3224 46.5975C63.7774 46.8381 63.2749 47.1612 62.7412 47.425C60.8665 48.3515 58.6074 48.4985 56.6243 47.8229C55.01 47.2731 53.6166 46.2221 52.0216 45.6208ZM118.224 50.2045C119.373 50.1375 120.76 50.5761 121.521 49.729C121.696 49.5352 121.81 49.2683 121.747 49.0172C121.661 48.6755 121.295 48.4876 120.961 48.3584C118.831 47.5326 116.447 47.351 114.212 47.8442C113.434 48.0159 112.979 48.721 112.809 49.4857C112.638 50.2504 112.68 51.0784 112.809 51.8507C113.137 53.8128 113.465 55.7747 113.793 57.7367C113.808 57.8252 113.824 57.9166 113.874 57.9912C113.95 58.103 114.088 58.1549 114.218 58.1983C115.832 58.738 117.55 58.9788 119.253 58.904C119.931 58.8743 120.664 58.7692 121.139 58.2945C123.466 55.9724 125.168 53.0513 126.026 49.9049C125.558 50.3149 124.959 50.6343 124.334 50.5869C123.709 50.5395 123.102 50.0177 123.142 49.4038C121.944 50.3098 120.533 51.2686 119.052 50.9678C117.92 50.7377 116.67 51.23 116.014 52.1646C115.614 52.0613 115.768 51.454 116.059 51.1656C116.629 50.6008 117.416 50.2517 118.224 50.2045ZM49.4381 67.6688C48.6537 67.7887 47.8732 67.9321 47.0989 68.1036C46.5545 68.2243 45.9064 68.4697 45.8358 69.013C45.6954 70.0965 45.6192 71.188 45.6076 72.2799C51.5287 70.9093 57.8157 71.0936 63.6428 72.8084C64.2619 71.3849 64.8812 69.9613 65.5003 68.5378C60.2865 67.152 54.7754 66.8539 49.4381 67.6688ZM71.3135 59.1296C70.3767 58.643 69.2855 58.4475 68.2339 58.5779C68.0263 58.6036 67.7932 58.66 67.6931 58.8404C67.2939 59.5604 66.421 59.8718 65.6135 60.0816C61.5502 61.1377 57.2599 61.1139 53.0952 60.5569C52.3211 60.4532 51.5363 60.3277 50.8328 59.9938C50.1293 59.6599 49.5074 59.0856 49.2988 58.3466C48.7443 58.3384 48.4114 58.9329 48.2143 59.4414C47.6186 60.9795 47.1036 62.5479 46.6723 64.138C53.4247 62.637 60.5606 62.831 67.2179 64.6969C67.8531 63.9358 68.3247 63.0434 68.5928 62.0952C68.718 61.6526 69.064 61.3088 69.3972 60.986C70.036 60.3673 70.6749 59.7484 71.3135 59.1296ZM60.285 81.5507C60.9376 80.1346 61.4916 78.6749 61.9424 77.1848C56.7439 76.3398 51.4199 76.2406 46.1923 76.892C45.9706 76.9196 45.7246 76.9619 45.5906 77.1374C45.4728 77.2918 45.4788 77.5025 45.4902 77.695C45.5458 78.6504 45.6016 79.606 45.6572 80.5614C45.6722 80.818 45.7969 81.1649 46.0537 81.1131C50.745 80.1638 55.6634 80.3151 60.285 81.5507ZM125.132 37.7019C125.28 37.3393 125.423 36.958 125.391 36.5685C125.359 36.179 125.1 35.7797 124.709 35.7075C124.465 35.6624 124.213 35.7492 124.002 35.8773C123.484 36.191 123.159 36.7292 122.855 37.2466C121.477 39.5892 120.099 41.9316 118.722 44.274C118.543 44.5776 118.027 44.4837 117.831 44.1904C117.635 43.8972 117.661 43.5177 117.689 43.1682C117.92 40.2383 117.747 37.278 117.174 34.3938C117.138 34.2147 117.098 34.0295 116.989 33.8823C116.67 33.4555 115.928 33.6038 115.608 34.0289C115.287 34.4542 115.269 35.0222 115.264 35.5512C115.233 39.5798 115.271 43.7514 113.613 47.4368C115.297 46.7951 117.194 46.7026 118.935 47.1768C119.183 47.2447 119.441 47.3245 119.695 47.2773C119.949 47.2301 120.19 47.0034 120.145 46.7538C119.979 45.8182 120.664 44.9678 121.265 44.2239C122.864 42.2472 124.171 40.043 125.132 37.7019ZM67.3718 56.9911C67.2572 56.5294 66.8353 56.1053 66.353 56.1476C61.4311 56.5801 56.4813 56.7032 51.5436 56.5157C51.2512 56.5045 50.9433 56.4954 50.684 56.6284C50.5011 56.7221 50.3579 56.881 50.2609 57.0598C49.8668 57.7858 50.2669 58.7323 50.9386 59.2242C51.6103 59.7159 52.4756 59.8596 53.307 59.9626C56.9371 60.4124 60.6364 60.365 64.2398 59.7437C65.018 59.6095 65.8161 59.4385 66.4601 58.9895C67.1041 58.5406 67.559 57.7443 67.3718 56.9911ZM58.5975 86.5679C58.6261 86.4714 58.6533 86.3619 58.6016 86.2751C58.5462 86.1826 58.4251 86.1552 58.3174 86.1373C54.4048 85.4859 50.4002 85.8059 46.4452 86.1276C46.3334 86.1367 46.2061 86.1542 46.1432 86.2454C46.0942 86.3166 46.1013 86.4101 46.1101 86.4954C46.2248 87.5972 46.3394 88.6992 46.454 89.8012C46.4759 90.0127 46.5672 90.287 46.7837 90.2763C50.2227 90.1039 53.6784 90.2533 57.0886 90.722C57.3052 90.752 57.4357 90.4983 57.4967 90.2921C57.8636 89.0506 58.2306 87.8094 58.5975 86.5679ZM56.3549 96.4823C56.3718 96.3239 56.3815 96.1431 56.2697 96.0277C56.1842 95.9392 56.0516 95.9164 55.9283 95.8996C53.2512 95.5337 50.531 95.7934 47.841 96.0536C47.7066 96.0666 47.551 96.0926 47.4861 96.2088C47.4417 96.2887 47.4557 96.3864 47.4711 96.4762C47.6514 97.5318 47.832 98.5875 48.0125 99.6433C48.0385 99.7952 48.1203 99.9901 48.2755 99.9676C50.8414 99.5922 53.5719 99.4818 55.9187 100.567C56.0642 99.2054 56.2095 97.8438 56.3549 96.4823ZM45.5924 38.9933C46.5616 39.6465 47.6257 40.1644 48.7424 40.5256C48.2561 38.325 48.161 36.0418 48.4622 33.8096C48.5004 33.5273 48.1765 33.3451 47.909 33.2345C46.3456 32.5877 44.9265 31.6067 43.7793 30.3797C43.8978 32.7087 44.1543 35.0306 44.5471 37.3303C44.606 37.6751 44.6719 38.0295 44.8621 38.3252C45.0411 38.6033 45.3161 38.807 45.5924 38.9933ZM71.4301 41.3578C72.4712 40.5273 73.3833 39.5482 74.1902 38.4963C74.6258 37.929 75.036 37.3311 75.2773 36.6614C75.5199 35.9879 75.5828 35.2661 75.6116 34.5524C75.6871 32.6846 75.5418 30.8082 75.1796 28.9729C74.3435 30.0875 73.5076 31.2022 72.6715 32.3168C72.5433 32.4879 72.4119 32.6653 72.3626 32.8721C72.3229 33.0377 72.339 33.2109 72.3531 33.3805C72.5764 36.0648 72.2608 38.791 71.4301 41.3578ZM55.2783 109.523C55.4614 109.56 55.5452 109.309 55.5497 109.125C55.5763 108.03 55.6027 106.935 55.6293 105.839C55.6317 105.741 55.6332 105.638 55.5898 105.549C55.5095 105.385 55.308 105.322 55.1283 105.276C54.1123 105.017 53.0816 104.756 52.0319 104.768C51.1599 104.779 50.2966 104.978 49.425 104.957C49.326 104.955 49.1972 104.971 49.1766 105.065C49.1693 105.098 49.1788 105.132 49.1882 105.165C49.5729 106.475 50.0793 107.751 50.6991 108.971C50.7804 109.131 50.8774 109.303 51.047 109.368C51.1668 109.414 51.3006 109.397 51.4281 109.381C52.7081 109.224 54.0139 109.272 55.2783 109.523ZM76.1909 27.2753C75.9915 27.5779 75.8151 27.9084 75.7824 28.2672C75.7622 28.4873 75.7972 28.7083 75.8322 28.9266C75.9666 29.7677 76.1012 30.6091 76.2356 31.4503C76.2435 31.4992 76.2525 31.551 76.2858 31.5881C76.3637 31.6755 76.5084 31.6292 76.6138 31.5765C77.0395 31.3644 77.4701 31.1491 77.8295 30.8407C78.1176 30.5933 78.3524 30.2923 78.5737 29.9856C79.0359 29.3447 79.4603 28.6297 79.4904 27.845C79.5204 27.0603 79.0297 26.2071 78.2427 26.0655C77.4092 25.9153 76.6512 26.5772 76.1909 27.2753ZM39.975 28.9413C39.6555 29.2158 39.5398 29.6521 39.4868 30.0656C39.4381 30.4442 39.4297 30.8386 39.5637 31.1969C39.7483 31.6911 40.187 32.0617 40.6724 32.2856C41.158 32.5098 41.6927 32.6058 42.2206 32.6996C42.4812 32.7461 42.7416 32.7925 43.0022 32.8388C43.0668 32.8502 43.1432 32.8584 43.1887 32.8121C43.2267 32.7737 43.2267 32.7137 43.2241 32.6604C43.1812 31.7135 43.1381 30.7665 43.0949 29.8196C43.0767 29.4172 42.7837 29.0629 42.4224 28.8718C42.0611 28.6807 41.6406 28.6293 41.2305 28.6192C40.7875 28.608 40.3081 28.6546 39.975 28.9413ZM123.723 45.1456C123.531 44.94 123.248 44.8458 122.976 44.7659C122.688 44.6813 122.377 44.6037 122.091 44.6962C121.767 44.8009 121.552 45.0986 121.381 45.3887C121.122 45.8273 120.907 46.291 120.741 46.7709C120.682 46.9409 120.628 47.1195 120.653 47.2973C120.677 47.4753 120.801 47.6521 120.981 47.6852C121.715 47.8202 122.356 48.3629 122.6 49.0555C122.94 48.3544 123.281 47.6536 123.622 46.9525C123.763 46.6626 123.906 46.3672 123.954 46.0495C124.003 45.7316 123.944 45.3824 123.723 45.1456ZM126.277 46.6135C125.928 46.2914 125.347 46.3139 124.944 46.5676C124.54 46.821 124.289 47.2546 124.126 47.6967C123.941 48.2007 123.851 48.7381 123.862 49.2736C123.865 49.4015 123.874 49.5335 123.935 49.6471C124.079 49.9207 124.462 49.9821 124.767 49.9064C125.433 49.7415 125.877 49.1341 126.206 48.5426C126.375 48.2377 126.533 47.9177 126.577 47.5731C126.622 47.2284 126.535 46.8513 126.277 46.6135ZM56.0322 114.985C55.8684 114.055 55.7047 113.126 55.5406 112.196C55.5218 112.088 55.4962 111.969 55.4063 111.904C55.3474 111.861 55.2712 111.849 55.1985 111.84C54.3542 111.732 53.4964 111.727 52.6508 111.824C53.649 113 54.7861 114.063 56.0322 114.985Z" fill="#00160A"/>
<path id="Vector_9_2" d="M7.54839 24.3563C6.70554 25.9418 6.26831 27.7011 6.27895 29.4808C5.57901 28.1277 4.74087 26.7286 3.12483 26.3185C1.77132 25.9633 0.203801 26.693 0.02054 28.1279C-0.198699 29.8518 1.38318 31.357 2.56973 32.4194C3.95982 33.6745 5.56643 34.6824 7.21327 35.591C8.05639 36.0542 8.90862 36.4823 9.7645 36.9199C9.57516 37.5076 9.3942 38.1773 9.7557 38.7065C10.0391 39.1148 10.6114 39.2926 11.0278 38.9315C11.4443 38.5704 11.4335 37.9479 11.1598 37.5361C10.92 37.1866 10.5457 36.9487 10.149 36.7399C10.1704 36.6793 10.1857 36.6312 10.2071 36.5706C10.3626 36.0692 10.5311 35.5737 10.7127 35.0843C11.0628 34.0992 11.449 33.1226 11.7957 32.1282C12.4128 30.3791 12.9306 28.5699 13.013 26.7145C13.0727 25.3024 13.0055 23.1926 11.6149 22.3516C9.93258 21.3177 8.26913 23.0053 7.54839 24.3563ZM10.9535 37.8114C11.0836 38.0728 11.1012 38.4171 10.8778 38.6454C10.5008 39.0242 10.0285 38.6408 9.91863 38.2555C9.80872 37.8702 9.9167 37.4493 10.0451 37.0532C10.4117 37.2407 10.7792 37.4598 10.9535 37.8114ZM12.6936 25.7351C12.7372 26.6539 12.6696 27.5696 12.4972 28.47C12.1662 30.3079 11.5069 32.0617 10.8475 33.8153C10.5055 34.7336 10.1576 35.6647 9.86496 36.5973C9.6372 36.4876 9.41631 36.3966 9.2113 36.2893C8.40222 35.8882 7.60901 35.4709 6.81858 35.0314C5.20438 34.1218 3.64289 33.087 2.30762 31.8017C1.53647 31.0581 0.681262 30.2063 0.354368 29.1766C0.010107 28.0999 0.438646 26.9701 1.59248 26.5793C3.77384 25.8426 5.36091 28.0146 6.27277 29.6422C6.2791 29.778 6.28542 29.9137 6.29175 30.0496C6.30572 30.2356 6.58554 30.1886 6.5785 30.0214C6.52202 28.2368 6.83844 26.4784 7.63127 24.8468C8.02462 24.0376 8.53381 23.1551 9.36264 22.6891C10.2816 22.1698 11.3816 22.2863 11.9987 23.1488C12.5247 23.8846 12.6543 24.8575 12.6936 25.7351Z" fill="#FFB61D"/>
<path id="Vector_10_2" d="M119.628 2.40786C117.944 3.09084 116.457 4.16269 115.299 5.53265C115.649 4.05462 115.924 2.45414 114.954 1.1206C114.15 -0.00533007 112.471 -0.435111 111.391 0.548513C110.094 1.73073 110.32 3.88166 110.533 5.44396C110.776 7.28224 111.347 9.06785 112.013 10.8029C112.355 11.6896 112.728 12.555 113.097 13.4299C112.567 13.7609 111.99 14.1599 111.92 14.7931C111.87 15.2848 112.191 15.782 112.747 15.7681C113.303 15.7542 113.702 15.2705 113.762 14.7824C113.807 14.3632 113.676 13.9448 113.509 13.5348C113.566 13.502 113.608 13.4748 113.665 13.4417C114.112 13.1556 114.566 12.8824 115.025 12.622C115.939 12.0884 116.874 11.5838 117.791 11.041C119.41 10.0902 120.991 9.03077 122.27 7.66144C123.24 6.61759 124.571 4.95901 124.057 3.43753C123.445 1.58423 121.065 1.82768 119.628 2.40786ZM113.424 14.8633C113.352 15.1454 113.14 15.4201 112.819 15.4542C112.283 15.5067 112.172 14.9149 112.34 14.5505C112.508 14.1858 112.867 13.9317 113.224 13.709C113.383 14.084 113.52 14.4837 113.424 14.8633ZM122.667 6.70986C122.098 7.44108 121.447 8.10005 120.725 8.68086C119.268 9.88018 117.614 10.8075 115.96 11.7349C115.097 12.2228 114.22 12.7166 113.385 13.2464C113.282 13.0185 113.173 12.8095 113.086 12.5982C112.729 11.7806 112.395 10.9605 112.077 10.1252C111.436 8.40994 110.918 6.63234 110.737 4.80543C110.633 3.74936 110.536 2.55739 110.96 1.56233C111.402 0.520389 112.47 -0.0747244 113.61 0.353687C115.763 1.16536 115.556 3.83047 115.189 5.65252C115.105 5.76039 115.021 5.86846 114.937 5.97653C114.825 6.12779 115.071 6.26851 115.175 6.13579C116.3 4.73317 117.694 3.58559 119.371 2.83595C120.202 2.46411 121.17 2.10924 122.11 2.27518C123.154 2.45707 123.92 3.24033 123.828 4.29014C123.749 5.18569 123.211 6.01276 122.667 6.70986Z" fill="#FFB61D"/>
</g>
</svg>
